<svg height="1565" viewBox="150.03 132.34 492.76 346.94" width="2500" xmlns="http://www.w3.org/2000/svg"><path d="m384.61 473.38c3.51 1.37 7.63 2.17 12.05 2.17 4.4 0 8.51-.79 12.01-2.15l205.53-71.4c14.79-5.5 24.23-7.89 24.86-28.95v-134.43c-.64-21.06-10.08-23.45-24.86-28.95l-205.53-71.45c-3.5-1.37-7.61-2.15-12.01-2.15-4.41 0-8.54.79-12.05 2.17l-205.63 71.46c-14.75 5.52-25.17 8.75-24.74 30.05v-.01 132.17c-.43 21.3 9.99 24.53 24.74 30.05z" fill="#fff"/><path d="m396.65 479.28c-4.73 0-9.36-.84-13.41-2.42l-205.49-71.37-1.38-.52c-14.13-5.27-26.34-9.82-25.87-33.14v-132c-.47-23.31 11.74-27.86 25.87-33.13l1.3-.49 205.71-71.5c3.91-1.53 8.54-2.37 13.27-2.37 4.71 0 9.33.83 13.37 2.41l205.4 71.41 2.22.82c13.67 5.03 24.47 9 25.15 31.54v134.53c-.68 22.65-11.48 26.62-25.15 31.65l-2.15.79-205.6 71.43c-3.9 1.53-8.53 2.36-13.24 2.36z" fill="#009045"/><path d="m384.61 473.38c3.51 1.37 7.63 2.17 12.05 2.17 4.4 0 8.51-.79 12.01-2.15l205.53-71.4c14.79-5.5 24.23-7.89 24.86-28.95v-134.43c-.64-21.06-10.08-23.45-24.86-28.95l-205.53-71.45c-3.5-1.37-7.61-2.15-12.01-2.15-4.41 0-8.54.79-12.05 2.17l-205.63 71.46c-14.75 5.52-25.17 8.75-24.74 30.05v-.01 132.17c-.43 21.3 9.99 24.53 24.74 30.05z" fill="#fff"/><path d="m387.43 466.24c2.73 1.07 5.92 1.63 9.22 1.63s6.48-.56 9.2-1.62l207.83-72.25c13.2-4.86 17.2-6.33 17.67-21.07v-134.19c-.47-14.74-4.47-16.21-17.67-21.07l-207.83-72.3c-2.72-1.06-5.9-1.62-9.2-1.62-3.31 0-6.5.56-9.22 1.63l-207.05 72c-12.81 4.78-18.09 6.74-18.43 19.59v135.1c-.31 15.24 4.8 17.14 18.43 22.22z" fill="#009045"/><path d="m183.87 337.55 5.88-1.3.05-59.29-5.87-1.28.01-9.03 26.08-.03c8.29 0 15.03 2.57 20.09 7.62 8.52 8.51 10.29 22.14 10.28 32.07-.01 13.38-3.54 30.81-20.3 37.83-3.96 1.58-8.18 2.4-12.24 2.4h-.13l-.24-.04-.28-.06c-1.62-.51-3.74-1.18-5.32-1.67l-.42 1.78-17.6.02zm19.93-3.01c1.66.38 3.04.56 4.28.56 2.36 0 4.6-.71 6.66-2.1 9.02-5.84 10.38-19.45 10.39-27.03 0-5.93-.88-20.35-9.15-26.21-1.83-1.42-3.92-2.17-5.95-2.17-.91 0-1.82.02-2.73.03-.97.02-1.97.03-2.96.03h-.48z" fill="#3c5234"/><path d="m210.07 268.22h-.05l-24.48.03-.01 6.14 5.87 1.28-.06 61.86-5.88 1.3v6.15l14.73-.02.52-2.21c1.3.38 4.65 1.43 6.96 2.17l.17.03c3.86 0 7.88-.79 11.62-2.27h.01c15.95-6.68 19.31-23.46 19.32-36.36.01-9.63-1.69-22.82-9.81-30.94-4.75-4.75-11.11-7.16-18.91-7.16zm16.66 37.76c-.01 7.91-1.46 22.12-11.09 28.36-2.33 1.57-4.87 2.37-7.56 2.37-1.66 0-3.53-.29-5.88-.91l.06-59.76c1.68.05 3.37.02 5.01 0 .92-.01 1.83-.03 2.75-.03 2.39 0 4.83.87 6.86 2.45l.02.01c8.88 6.28 9.83 21.33 9.83 27.51z" fill="#fff"/><path d="m269.32 346.93c-4.04 0-9.89-1.04-14.84-5.98-5.81-5.8-8.74-15.42-8.73-28.59.03-30.45 14.84-35.01 23.66-35.03 4.15 0 10.1 1.04 15.03 5.97 5.83 5.83 8.78 15.59 8.77 29.01-.02 16.73-6.29 34.6-23.85 34.62zm.09-58.92c-6.23.01-10.11 9.22-10.12 24.04-.01 11.19 1.74 18.87 5.07 22.2 1.36 1.36 2.99 2.02 4.99 2.02 6.43-.01 10.12-8.85 10.13-24.25.01-10.8-1.85-18.61-5.23-21.99-1.36-1.36-2.94-2.02-4.82-2.02z" fill="#3c5234"/><path d="m269.45 278.93h-.03c-19.17.02-22.05 20.96-22.06 33.43-.01 12.73 2.77 21.97 8.26 27.46 4.56 4.55 9.96 5.51 13.71 5.51h.03c16.39-.02 22.24-17.07 22.26-33.03.01-12.98-2.78-22.36-8.3-27.88-4.55-4.53-10.05-5.49-13.87-5.49zm11.63 33.08c-.01 16.66-4.18 25.84-11.72 25.85h-.01c-2.41 0-4.47-.84-6.12-2.49-3.69-3.69-5.55-11.54-5.54-23.33.01-16.05 4.39-25.63 11.72-25.64h.01c2.3 0 4.3.84 5.95 2.49 3.75 3.74 5.72 11.74 5.71 23.12z" fill="#fff"/><path d="m329.35 346.36c-2.91 0-13.02-.61-20.86-8.45-6.07-6.07-9.14-14.82-9.14-26.02.01-11.95 3.02-20.99 8.93-26.86 6.38-6.33 14.67-7.28 19.05-7.28 7.56.05 12.77 2.93 13.34 3.26l1.08.62-.02 14.7-7.2 1.65-2.33-9.12c-1.85-.27-3.77-.44-4.94-.44-5.78.01-14.36 6.18-14.37 23.15-.01 10.69 3.66 16.61 6.75 19.7 2.8 2.8 6.27 4.4 9.53 4.4.32 0 1.31-.1 4.18-.95l.02-20.29-6.12-1.09.01-8.33 18.71-.02-.02 34.87-16.26 6.49h-.34z" fill="#3c5234"/><path d="m328.85 312.02 6.12 1.09-.02 22.82c-2.91.9-4.85 1.36-5.76 1.36h-.01c-3.68 0-7.56-1.78-10.66-4.87-3.3-3.3-7.23-9.59-7.22-20.83.02-18.15 9.55-24.75 15.96-24.75h.01c1.47 0 4.04.26 6.23.62l2.2 8.63 4.44-1.02.01-12.51-.28-.16c-.21-.12-5.27-3-12.52-3.04-4.16 0-11.92.83-17.95 6.81-5.6 5.56-8.44 14.22-8.45 25.73-.01 10.76 2.91 19.13 8.67 24.89 7.4 7.39 16.94 7.98 19.73 7.98h.02l14.97-5.97.02-32.18-15.51.02z" fill="#fff"/><path d="m404.53 345.42c-4.32 0-8.7-.85-12.67-2.45-17.65-6.99-21.35-24.1-21.34-37.22.02-23.87 12.61-39.3 32.06-39.3 8.4 0 14.89 3.57 15.16 3.72l1.1.61-.02 16.62-7.79 1.79-2.56-10.51c-2.23-.35-4.26-.53-6.05-.53-2.15.01-4.54.77-6.55 2.08-9.3 5.93-10.32 19.57-10.33 25.15-.01 5.91 1.16 20.32 12.11 26.42 2.18 1.25 4.48 1.91 6.65 1.91 3.4 0 7.21-.99 10.57-1.86l2.63-.68 3.08 9.39-2.19.59c-.42.11-4.58 1.44-7.34 2.32-6.07 1.94-6.07 1.94-6.46 1.94h-.06z" fill="#3c5234"/><path d="m415.27 333.41c-3.45.89-7.37 1.9-10.79 1.9-2.56.04-5.19-.72-7.61-2.11-11.69-6.51-12.94-21.63-12.93-27.82.01-5.85 1.1-20.14 11.05-26.49 2.32-1.53 5.03-2.34 7.43-2.35 2.15 0 4.62.24 7.36.73l2.44 10 5.01-1.15.01-14.4-.28-.16c-.26-.14-6.41-3.52-14.38-3.52-18.48 0-30.43 14.8-30.46 37.7-.01 12.63 3.51 29.08 20.34 35.74 3.78 1.53 7.96 2.33 12.07 2.33h.06c.13 0 .15 0 5.98-1.86 3.26-1.04 6.96-2.22 7.41-2.34l.56-.15-2.09-6.36z" fill="#fff"/><path d="m424.16 337.05 5.17-1.12.04-50.73-5.17-1.11.01-8.34 17.9-.02-.03 27.72 18.77-.03.03-27.72 17.9-.02-.01 8.34-5.17 1.12-.05 50.74 5.17 1.11-.01 8.33-17.9.02.03-31.75-18.77.02-.03 31.76-17.9.02z" fill="#3c5234"/><path d="m462.45 305.01-21.97.04.03-27.72-14.7.02-.01 5.45 5.17 1.1-.04 53.32-5.18 1.12v5.45l14.69-.01.04-31.76 21.96-.04-.03 31.76 14.71-.02v-5.44l-5.17-1.11.05-53.32 5.17-1.12.01-5.44-14.7.01z" fill="#fff"/><path d="m505.54 345.79c-4.1 0-10.04-1.05-15.06-6.07-5.89-5.89-8.87-15.66-8.86-29.02.03-30.91 15.05-35.54 24.01-35.56 4.21 0 10.24 1.05 15.25 6.06 5.91 5.91 8.9 15.82 8.89 29.45-.02 16.98-6.38 35.13-24.2 35.15h-.03zm.08-59.87c-6.35 0-10.3 9.38-10.32 24.46-.01 11.38 1.78 19.19 5.17 22.58 1.38 1.38 3.05 2.05 5.08 2.05 6.56-.01 10.32-9 10.34-24.67.01-10.97-1.88-18.92-5.32-22.36-1.39-1.39-3.01-2.06-4.95-2.06z" fill="#3c5234"/><path d="m505.65 276.74h-.02c-19.47.03-22.4 21.29-22.41 33.96-.01 12.93 2.81 22.31 8.39 27.89 4.63 4.63 10.13 5.6 13.93 5.6h.02c16.64-.02 22.58-17.35 22.6-33.55.01-13.19-2.82-22.71-8.42-28.31-4.61-4.62-10.2-5.59-14.09-5.59zm11.84 33.61c-.01 16.93-4.25 26.26-11.92 26.27h-.02c-2.45 0-4.54-.85-6.21-2.52-3.75-3.75-5.65-11.73-5.64-23.71.02-16.31 4.47-26.06 11.92-26.06h.01c2.34 0 4.39.85 6.07 2.53 3.8 3.8 5.8 11.92 5.79 23.49z" fill="#fff"/><path d="m534.99 285.04-5.2-1.07.02-8.36 16.76-.01 7.66 42.32 7.26-27.34-1.49-5.44-5.89-1.2.02-8.36 16.71-.02 12.05 45.17 8.85-45.31 15.22.12v8.32l-5.6 1.19-12.28 60.13-12.2.02-9.92-35.74-9.08 35.75-11 .03z" fill="#3c5234"/><g fill="#fff"><path d="m593.06 277.03-9.93 50.81-13.4-50.27-.11-.41-13.9.02-.01 5.46 5.57 1.12 1.87 6.81-9.22 34.69-8.69-48.06-13.84.01-.01 5.45 4.96 1.03 11.84 59.95 8.45-.02 10.26-40.39 11.2 40.37 9.67-.02 12.24-59.88 5.35-1.13v-5.45zm19.23 5.52c-1.98 0-3.74-1.38-3.74-3.74s1.76-3.74 3.74-3.74c1.97 0 3.73 1.37 3.73 3.74.01 2.37-1.76 3.74-3.73 3.74zm0-6.61c-1.47 0-2.67 1.15-2.67 2.87s1.19 2.88 2.67 2.87v.01c1.44 0 2.66-1.16 2.66-2.88s-1.22-2.87-2.66-2.87zm-.62 4.88h-.85v-4.03h1.5c1.03 0 1.64.3 1.64 1.21 0 .74-.44 1.01-.97 1.05l1.03 1.76h-1.01l-.93-1.69h-.41zm.76-2.37c.38 0 .61-.08.61-.52 0-.41-.44-.44-.76-.44h-.61v.97h.76zm-384.86 111.86c-.78 0-1.75-.29-2.53-.59a3.33 3.33 0 0 1 -.99-.57c-.14-.12-.25-.27-.4-.39-.2-.15-.44-.23-.63-.38-.27-.23-.42-.58-.61-.84-.2-.28-.43-.51-.55-.81-.3-.78-.17-1.47-.19-2.21-.01-.25-.16-.51-.11-.77.04-.27.18-.45.18-.74 0-.18-.03-.33.03-.5.04-.11.24-.23.21-.34s-.15-.12-.18-.23c-.03-.13.13-.22.21-.33.14-.19.23-.43.3-.68.07-.26.12-.53.18-.76.15-.57.43-1.04.65-1.59.23-.56.55-1.06.94-1.53.19-.23.34-.48.48-.73.13-.23.19-.56.38-.75.25-.25.73-.18 1.11-.24.4-.07.65-.21.93-.42.3-.21.73-.3 1.2-.3.46 0 .94.09 1.35.23.38.13.87.44.93.7.04.14-.05.27-.36.33-.26.06-.62-.05-.79.14-.12.13-.01.27-.06.42-.07.2-.18.32-.33.48-.43.46-.93.86-1.32 1.35-.46.58-.93 1.16-1.4 1.73-.44.54-.61 1.26-.85 1.88-.28.72-.49 1.41-.6 2.18-.12.84-.34 1.95-.09 2.96.1.38.26.74.53 1.07s.67.44 1.09.44c.46 0 .95-.13 1.31-.22.89-.24 1.52-.59 2.28-.99.66-.34 1.04-.91 1.58-1.37.38-.32.77-.63 1.17-.93.28-.22.45-.49.71-.73.6-.57 1.07-1.21 1.63-1.8.21-.22.37-.43.59-.63.28-.25.24-.51.43-.81.06-.09.11-.21.21-.26.16-.1.51-.18.5-.25-.02-.09-.09-.09-.11-.14-.03-.14.05-.32.19-.47.07-.07.27-.17.31-.23.1-.13.07-.22.13-.38.06-.18.18-.3.5-.45-.07-.07-.11-.12-.12-.16-.03-.16.25-.21.35-.35.18-.24.19-.67.36-.96.18-.3.38-.59.52-.91.05-.11.11-.23.15-.34.02-.03.08-.17.1-.2s.01-.14.03-.18c.02-.05.11-.04.14-.07.08-.1.18-.19.23-.32.11-.29.15-.61.24-.9.08-.28.37-.43.49-.71.08-.19.18-.39.13-.59a.139.139 0 0 1 0-.09c.05-.11.33-.15.3-.27-.02-.07-.06-.1-.08-.17s.09-.15.11-.21c.02-.09.01-.15.01-.24 0-.07.02-.14.07-.21.05-.06.21-.06.25-.12.06-.09.05-.2.08-.29.04-.12.19-.3.17-.38-.01-.04-.12-.04-.13-.08-.02-.1.04-.15.05-.25.05-.31.32-.42.41-.69.14-.41.2-.84.31-1.26a1 1 0 0 0 .03-.45c-.02-.07-.05-.1-.06-.14-.02-.08.06-.12.19-.15.03-.01.05-.01.07-.03.1-.12.08-.24.05-.36-.01-.03-.01-.06-.02-.08-.01-.03-.01-.06-.02-.09-.05-.38.07-.79.15-1.18.11-.51.22-1.02.26-1.54.01-.09.06-.33.09-.58.02-.18.03-.36 0-.48-.03-.1-.1-.17-.28-.17-.41 0-1.18.15-1.38.18-.18.04-.42.11-.62.11s-.31-.2-.48-.2c-.12 0-.03.21-.1.27-.04.03-.1.03-.16.03-.08 0-.16-.01-.23 0-.43.04-.82.1-1.22.2-.37.08-.77.05-1.14.1-.38.06-.71.22-1.09.28-1.65.28-3.16.82-4.73 1.23-.84.22-1.66.48-2.49.72-.69.2-1.46.67-2.27.67-.73 0-1.57-.31-1.94-.83-.2-.28-.71-.73-.8-1.06-.03-.11-.01-.2.07-.28.1-.09.18-.13.27-.13.29 0 .61.22.85.22.35-.01.67-.17.97-.24.81-.19 1.64-.36 2.44-.57.78-.2 1.49-.47 2.29-.65.86-.19 1.72-.38 2.57-.6.98-.25 2.03-.43 3.08-.59.79-.12 1.58-.22 2.35-.32.87-.12 1.74-.25 2.63-.33.36-.03.65-.13.57-.43-.07-.26-.29-.39-.38-.7-.08-.29.15-.23.32-.39.23-.22.16-.5.54-.62.13-.04.43-.12.63-.12.19 0 .27.33.41.33.15 0 .44-.19.63-.19.08 0 .21.12.3.13.44.06.45-.07.72.33.11.16.18.34.34.48.02.02.44.23.43.22.19.21.07.18-.04.4-.07.14-.1.23-.08.29.02.08.12.11.34.15.19.03.38.04.58.04h.3c.14 0 .29 0 .43.02.94.1 1.49.47 2.17 1.03.27.22.66.4.75.75.05.19-.17.16-.32.33-.09.1-.12-.03-.11.14 0 .07.21.15.19.23-.05.21-.59.01-.83-.06-.72-.21-1.34-.38-2.07-.47-.19-.02-.64-.1-.93-.1-.09 0-.17.01-.21.03-.25.11-.13.37-.11.63.09 1.35-.22 2.66-.52 3.93-.26 1.1-.46 2.2-.77 3.26-.09.3-.33.51-.46.77-.08.16-.08.3-.13.49-.05.21-.15.4-.33.5-.09.05-.38.14-.45 0-.09-.17.31-.81.36-1 .11-.39.35-.7.51-1.06.12-.27.1-.66.17-.96.1-.42.2-.84.3-1.25.04-.15.16-.37.25-.6.11-.26.19-.53.13-.74-.01-.04-.09-.08-.09-.11-.01-.04.05-.06.04-.1s-.04-.06-.09-.07c-.05 0-.12.02-.18.01-.05 0-.11-.05-.12-.09-.04-.15.05-.55.06-.67.01-.11-.04-.2.04-.3.11-.12.47-.16.43-.3-.03-.13-.25-.17-.31-.36-.06-.24.31-.52.24-.78-.02-.08-.06-.22-.17-.22-.12 0-.18.4-.19.46-.04.29.02.7-.09.95-.07.16-.35.27-.32.39.02.08.17.12.19.2.04.15-.06.31-.12.59-.05.23-.26.44-.22.6.04.14.4.1.43.22.04.15-.41.18-.53.31-.25.22-.37.54-.45.87-.05.19-.08.39-.11.57-.02.11 0 .27 0 .41 0 .17-.02.33-.16.39-.06.03-.15.03-.24.04-.11.01-.22.01-.3.04-.15.06-.22.18-.34.27-.1.08-.26.15-.35.24-.1.09-.11.15-.1.19s.04.07.05.1c.02.08.11.11.12.16s-.04.06-.1.07c-.09 0-.21-.02-.25-.02.02.07.06.14.13.15.2.02.57-.26.7-.26.09 0 .14.04.16.11.04.13-.04.33-.09.45-.04.09-.25.24-.23.32.02.06.11.14.13.21.03.11-.27.14-.44.17-.18.03-.33.06-.28.24.06-.05.13-.07.19-.06.13.01.24.12.27.24.04.14-.02.3-.26.38-.12.04-.4 0-.38.07.02.08.17.09.2.19.03.13-.14.2-.27.2-.25 0-.59-.16-.75-.16-.13 0-.15.28-.11.46.02.06.04.12.07.14.17.13.42.02.57.16.04.03.06.08.07.14.05.27-.16.73-.31.73-.09 0-.27-.12-.39-.12-.08 0-.12.14-.08.3.05.19.28.26.31.4.02.07-.1.19-.29.19-.15 0-.33-.1-.58-.1-.13 0-.22.03-.2.11.03.12.64.13.7.33.06.24-.27.5-.34.72-.06.22.04.46.01.69a.64.64 0 0 1 -.17.36c-.1.12-.25.21-.4.33-.29.22-.2.34-.28.65-.07.26-.29.46-.44.69-.03.04-.2.31-.18.41.01.03.03.04.06.04.02 0 .05 0 .09-.02.15-.05.44-.56.51-.69.08-.16.03-.33.13-.48.17-.25.47-.45.64-.7.29-.44.46-.96.65-1.44.11-.28.33-.47.5-.72.16-.24.11-.95.35-.95.11 0 .16.05.17.12.03.17-.13.45-.11.53.01.04.02.07.06.07.17 0 .3-.4.46-.4.06 0 .16.06.21.22.12.47-.49 1.3-.71 1.71-.11.19-.2.35-.27.55-.02.06-.09.09-.1.14-.01.06.06.19.05.28-.04.33-.45.68-.61.97-.17.3-.29.63-.47.93-.35.59-.71 1.17-1.08 1.75-.33.51-.79.85-1.2 1.3-.2.21-.22.48-.38.7-.2.27-.46.47-.64.76-.32.54-.84 1.02-1.33 1.46-1.08.97-2.1 1.89-3.44 2.64-1.35.63-2.89.98-4.62.98zm5.44-26.19c.17.03.57-.02 1.11-.1.78-.13 1.82-.34 2.78-.5.79-.14 1.44-.25 1.6-.28 1.07-.19 2.14-.34 3.29-.34.11 0 .22 0 .31-.01.21-.01.37-.05.35-.13-.04-.17-.35-.19-.54-.19h-.1c-.29.02-.33-.06-.54-.06-.16 0-.21.13-.44.19-.06.02-.12.03-.18.03-.17.01-.35-.03-.53-.06a3 3 0 0 0 -.37-.03c-.18 0-.29.05-.52.14-.27.11-.54.25-.83.31-.47.1-.96.18-1.45.25-.46.07-.93.14-1.38.24-.51.11-1.05.18-1.51.26-.47.08-.87.16-1.05.28zm5.4 17.04c-.02-.08-.07-.13-.17-.13-.29 0-.44.63-.4.79.02.08.08.13.16.13.25 0 .47-.54.41-.79zm3.68-5.58c-.03-.12.36-1.24.44-1.43.07-.15.17-.42.27-.55.06-.07.28-.19.45-.19.12 0 .17.06.19.13.03.16-.06.17-.19.45-.05.1-.07.32-.11.42-.03.07-.2.49-.4.83-.15.27-.32.49-.45.5-.05.01-.18-.1-.2-.16zm5.83 11.02c-.17 0-1.06-.11-1.59-.5-.36-.27-.59-.63-.93-.89-.17-.13-.22-.11-.38-.32-.2-.26-.46-.56-.53-.83-.1-.39.09-.75.16-1.12.03-.16.01-.33.13-.45.17-.18.29-.24.26-.37-.01-.03-.14-.09-.15-.14-.03-.1.07-.12.09-.19.05-.16.13-.33.2-.48.13-.31.25-.59.42-.87.08-.13.15-.27.17-.42.02-.21-.03-.35.08-.55.17-.3.49-.45.61-.79.11-.32.34-.6.35-.96.01-.28-.03-.24.18-.38.15-.11.25-.1.26-.25 0-.07-.02-.19-.07-.38a.392.392 0 0 1 .01-.26c.07-.2.23-.39.34-.58.24-.41.48-.82.75-1.22.17-.24.3-.61.54-.81.21-.17.72-.28 1.12-.28.08 0 .16 0 .23.02.37.06.95.35 1.26.56.11.07.45.59.5.8.13.49.03.84-.16 1.15-.23.4-.48.78-.75 1.16s-.56.75-.85 1.12c-.27.34-.65.56-.87.92-.52.84-.96 1.7-1.35 2.59-.24.55-.46 1.11-.67 1.68-.06.18-.25.42-.21.57.02.07.1.12.28.12.27 0 .66-.22.92-.39.77-.48 1.35-1.03 1.99-1.6.58-.52.98-1.17 1.59-1.67.34-.28.56-.49.79-.84.27-.41.69-.73 1.05-1.08.52-.51.85-1.17 1.43-1.63.26-.21.44-.46.65-.71.12-.15.22-.31.33-.46.04-.05.06-.13.12-.17.13-.11.26-.06.38-.14.14-.09.07-.25.15-.36.07-.1.23-.23.33-.32.33-.28.66-.5.95-.83.33-.37.79-.98 1.44-.98.16 0 .34.04.53.13.17.08.31.08.34.2.03.11-.18.17-.15.29.01.03.05.07.14.13.12.08.24.09.36.09.08 0 .15-.01.23-.01.14 0 .28.02.42.14.21.18.45.44.5.67.01.02.01.04.01.06.02.16 0 .27.04.41.01.05.03.09.05.15.03.06.05.11.06.16.05.16.03.27-.02.46-.22.81-.9 1.44-1.34 2.16-.22.36-.37.86-.58 1.23-.24.4-.55.67-.75 1.08a15.424 15.424 0 0 0 -.97 2.43c-.05.16-.24.68-.16.98.04.14.11.21.31.22.37.02.99-.2 1.18-.27 1.06-.37 1.94-.97 2.86-1.48.39-.22.78-.41 1.19-.61.21-.1.37-.23.55-.35.12-.07.43-.37.68-.37.1 0 .14.03.15.06.03.1-.58.38-.55.47.01.02.05.03.15.03.11 0 .29-.07.42-.07.08 0 .15.03.17.12.03.13-.54.28-.5.42.02.06.16.11.26.11.39 0 1.13-.33 1.34-.42.31-.13.89-.78 1.32-.78.07 0 .1.03.11.08.04.15-.21.46-.29.56-.12.17-.27.36-.33.56-.05.16.03.32-.16.42-.12.06-.21.03-.31.11-.11.09-.18.27-.31.38-.34.27-.59.56-.9.84-.35.33-.88.56-1.3.83-.35.23-.67.48-1.02.71-.4.26-.87.4-1.32.6-.52.23-1.07.4-1.67.4-.39 0-.81-.07-1.24-.25-.44-.18-.88-.34-1.29-.61-.21-.14-.34-.32-.54-.48-.22-.17-.48-.29-.68-.49-.33-.34-.46-.83-.69-1.21-.24-.41-.43-.77-.51-1.19-.02-.12.01-.4-.04-.6-.03-.13-.1-.22-.24-.22-.17 0-.36.27-.5.4-.18.17-.36.34-.55.5-.43.36-.85.72-1.27 1.08-.46.4-.93.79-1.4 1.18-.65.54-1.31 1.08-1.99 1.6-.43.28-.92.49-1.35.49zm4.2-4.06c.25-.19.59-.23.83-.42.49-.37.87-.83 1.35-1.21.28-.22.56-.44.83-.67.23-.2.37-.45.61-.64.23-.18.38-.3.56-.52.18-.21.33-.39.47-.63.07-.12.91-1.06.85-1.32-.01-.04-.04-.06-.09-.06-.19 0-.84.73-.99.82-.16.11-.26.18-.4.31-.16.16-.35.31-.51.47-.04.03-.17 0-.2.04-.04.05.03.12 0 .17-.11.2-.17.27-.37.44-.39.32-.77.65-1.1 1.02-.18.2-.42.37-.65.55-.17.13-.34.26-.47.4-.03.03-.21.36-.37.36-.05 0-.09-.03-.1-.07-.03-.13.25-.34.31-.39.34-.26.74-.48.93-.82.1-.17.21-.27.36-.42.02-.02.31-.31.28-.43-.01-.04-.07-.05-.11-.05-.26 0-.47.49-.61.63-.22.22-.57.35-.76.59-.21.26-.38.51-.63.74-.08.07-.24.2-.22.29.02.08.14.13.16.21.05.21-.43.57-.6.76-.06.07-.18.18-.17.25.01.03.04.06.12.06.26-.01.56-.36.69-.46zm10.84.65c.51-.27.97-.57.95-.68-.01-.04-.05-.06-.11-.05-.27.02-.95.47-1.04.51-.12.06-1.13.52-1.14.68 0 .04.04.06.16.06.14-.02.67-.26 1.18-.52z"/><path d="m265 386.62c-.19 0-.19-.12-.34-.18-.16-.06-.28-.03-.43-.13-.14-.09-.23-.33-.33-.53-.09-.18-.18-.33-.34-.33-.12 0-.14.19-.26.19-.18 0-.37-.54-.42-.64-.08-.16-.18-.33-.22-.49a.571.571 0 0 1 -.01-.29c.07-.27.28-.54.41-.8.15-.3.35-.49.59-.73.24-.23.36-.56.49-.84.15-.33.24-.67.42-.98.06-.11.19-.25.16-.37-.02-.09-.09-.15-.11-.23a.17.17 0 0 1 0-.1c.08-.25.46-.27.43-.39-.01-.04-.1-.09-.11-.14s-.01-.06-.01-.12c-.01-.16.17-.39.23-.55.05-.14.54-1.61.79-1.61.13 0 .12.08.27.08.19 0 .24-.37.29-.49.17-.4.3-.82.42-1.23.09-.31.13-.62.19-.94.07-.33.22-.63.3-.96.14-.59.13-1.23.29-1.82.06-.21.16-.39.37-.52.09-.06.2-.13.33-.13.11 0 .14.18.36.18.09 0 .13-.06.24-.06.18 0 .34.07.52.13.43.15.6.3.89.6.35.35.55.69.63 1.03.11.43.04.84-.1 1.24-.17.47-.46.92-.71 1.35-.34.58-.5 1.24-.86 1.82-.07.11-.43.62-.37.85.02.07.07.11.18.11.32 0 .63-.58.89-.66.28-.08.48-.03.7-.22.23-.2.39-.44.64-.62.13-.09.39-.25.36-.42-.01-.06-.16-.09-.17-.15-.02-.1.1-.18.16-.24.17-.15.59-.66.88-.66.13 0 .14.15.21.15.09 0 .12-.05.18-.08.15-.09.36-.28.47-.39.14-.15.06-.34.24-.47.19-.14.5-.15.73-.24.28-.11.41-.3.61-.48.22-.2.52-.3.83-.4.22-.07.47-.15.73-.15.09 0 .18.01.27.03.11.03.16.08.19.13.04.06.07.11.16.11.06 0 .12-.01.18 0 .32.07.31.24.58.35.13.05.27-.01.39.06.09.05.22.22.3.29.12.12.2.27.24.42.13.5-.09 1.14-.19 1.53-.33 1.27-.81 2.48-1.19 3.75a9.9 9.9 0 0 0 -.4 2.02c-.03.35-.06.71-.04 1.08.01.15 0 .42.06.64.06.23.15.36.41.36.46 0 1.25-.4 1.46-.47.74-.26 1.45-.56 2.08-.95.69-.42 1.33-.89 1.99-1.34.27-.19.62-.37.93-.57.28-.18.55-.38.71-.61.18-.26.26-.54.46-.82.03-.04.11-.15.2-.16.05 0 .1.03.11.08.02.09-.12.21-.1.31.01.04.06.09.12.09.08 0 .13-.11.19-.11.03 0 .08.03.1.11.03.12-.18.25-.13.44.02.08.22.09.25.19.01.06-.07.15-.1.2-.12.18-.64.43-.6.66.03.17.22.28.39.28.07 0 .13-.02.18-.05.07-.05.12-.26.22-.26.03 0 .1.04.11.1.04.15-.1.39-.13.48-.09.26-.2.49-.41.7-.48.47-1.05.89-1.59 1.32-.53.42-1.05.84-1.46 1.34s-1.08.85-1.8 1.06c-.5.15-.97.3-1.5.3-.26 0-.53-.04-.83-.13s-.65-.19-.99-.31c-.43-.15-.84-.34-1.1-.62-.11-.12-.16-.25-.28-.36-.14-.13-.29-.16-.45-.25-.34-.19-.57-.5-.74-.78-.2-.33-.35-.68-.5-1.02-.1-.21-.31-.71-.38-.97-.08-.33-.05-.89.04-1.46.05-.31.11-.62.17-.91.1-.45.21-.83.27-1.02.2-.55.41-1.1.59-1.66.05-.16.55-.69.49-.97-.02-.1-.11-.16-.23-.16-.28 0-.72.29-1.14.63-.52.42-1.01.92-1.1 1.01-1.05.97-2.04 1.97-2.98 3.01-.45.5-.9 1-1.33 1.52-.47.55-.92 1.12-1.36 1.69-.37.48-.7.98-1.04 1.48-.14.2-.29.37-.57.45-.19.06-.28.09-.33.16-.04.06-.04.15-.05.3 0 .1-.23.33-.44.33zm-.61-2.64c.11 0 .2-.16.25-.26.16-.31.28-.63.44-.94.37-.71.64-1.46 1-2.18.27-.55.48-1.12.74-1.68.11-.23.5-.76.42-1.05-.03-.12-.08-.16-.13-.16s-.11.04-.14.09c-.14.19-.24.56-.36.77-.31.52-.57 1.06-.83 1.61-.31.64-.59 1.3-.88 1.95-.11.26-.4.68-.56 1.08-.1.25-.16.49-.11.69.03.04.08.08.16.08zm2.15-2.29c.12-.26.32-.67.48-1.05.17-.41.31-.79.28-.91-.01-.03-.02-.05-.05-.05-.1 0-.32.37-.42.62-.15.35-.39.67-.56 1.01-.12.23-.21.48-.29.72-.03.07-.23.48-.19.61.01.03.02.04.05.04.18 0 .64-.87.7-.99zm2.5-1.27c.54-.57 1.08-1.14 1.63-1.7.48-.48.96-.95 1.48-1.41.76-.66 1.54-1.32 2.37-1.92.39-.28.83-.52 1.19-.83.08-.06.19-.18.18-.24-.01-.02-.05-.03-.07-.03-.28 0-1.3.79-1.91 1.15-.3.18-.57.39-.83.62-.34.3-.66.62-.98.91-.59.52-1.13 1.07-1.66 1.63-.41.43-.82.86-1.24 1.29-.08.08-.3.27-.5.46-.18.18-.34.36-.32.45.01.06.07.09.13.09.15.01.4-.34.53-.47zm6.09.86c.05 0 .11-.08.15-.16.14-.35.28-.87.41-1.22.2-.53.38-1.06.6-1.59.1-.23.31-.87.25-1.1-.03-.1-.07-.13-.12-.14-.11 0-.23.22-.26.3-.14.28-.23.59-.32.9-.16.54-.36 1.05-.47 1.6-.05.24-.16.5-.24.75-.07.21-.11.42-.07.58.01.06.03.08.07.08z"/><path d="m291.45 386.55c-.82 0-1.61-.12-2.33-.39a5.33 5.33 0 0 1 -2.19-1.48c-.5-.57-1.1-1.1-1.58-1.67-.34-.41-.56-.91-.68-1.39a4.59 4.59 0 0 1 -.1-.51c-.14-1.2-.06-2.52.32-3.61.42-1.21.73-2.46 1.24-3.63.26-.62.52-1.24.78-1.85.25-.58.52-1.16.82-1.73.11-.21.64-.9.56-1.2-.04-.13-.25-.2-.63-.2-.45 0-1.01.09-1.25.12-.48.05-1.21.13-1.89.13-.87 0-1.76-.13-2.36-.68-.22-.2-.33-.41-.45-.64-.09-.19-.3-.34-.35-.52-.04-.16 0-.24.09-.24.06 0 .15.04.25.13.31.26.56.35 1 .4.22.02.44.03.66.03.59 0 1.51.02 2.08.01.73-.01 1.45-.02 2.18-.02.27 0 .61.03.92.03.16 0 .32-.01.45-.04.34-.08.43-.37.58-.61.28-.44.54-.83.74-1.3.1-.23.06-.43.12-.67.06-.27.22-.53.31-.79.2-.58.5-1.12.79-1.66.13-.24.34-.49.53-.76s.35-.54.39-.82c.04-.27 0-.33.2-.54.16-.17.19-.35.33-.53.18-.23.47-.27.8-.27h.57c.15 0 .27.03.29.12.03.12-.01.2 0 .25.01.03.03.05.12.05.11 0 .23-.08.36-.08.05 0 .1.01.15.04.14.08.12.19.2.28.39.45.95.89 1.09 1.42.02.09.04.19.03.29-.02.25-.33.56-.5.75-.23.25-.32.42-.48.72-.33.62-.81 1.19-1.17 1.81-.17.3-.35.59-.55.87-.15.21-.31.6-.57.74-.32.17-.42.16-.37.37.04.14.29.26.68.26.32 0 1.54 0 2.22.01.45.01.74.05 1.13.06.5.01.91.02 1.09.02.15 0 .31.02.56.02.12 0 .24-.01.32-.04.14-.05.06-.17.19-.17.12 0 .67.24 1 .62.12.14.15.27.22.41.07.15.24.34.28.5s.02.42-.18.42c-.21 0-.52-.11-.75-.16-.17-.04-.34-.05-.5-.05-.21 0-.42.02-.62.02-.16 0-.33-.01-.5-.06-.23-.06-.3-.1-.45-.1-.05 0-.11 0-.19.01-.15.02-.25.03-.37.03-.08 0-.17-.01-.29-.02-.18-.03-.32-.03-.46-.03-.07 0-.14 0-.22.01-.13.01-.29.05-.46.05-.03 0-.07 0-.11-.01-.18-.02-.36-.1-.54-.1-.21 0-.31.06-.51.06h-.08c-.17-.01-.31-.06-.5-.06-.24 0-.55.07-.84.07h-.09c-.26-.01-.56-.11-.83-.11s-.39.09-.46.38c-.05.21-.18.38-.31.55-.12.15-.25.29-.34.46-.07.12-.14.25-.21.38-.12.19-.25.39-.42.53-.13.11-.18.09-.22.14-.02.03-.04.08-.07.18s-.06.19-.09.28c-.04.1-.09.21-.15.31-.06.11-.19.25-.15.39.02.08.26.06.27.15.01.05-.03.09-.07.09-.06 0-.13-.1-.21-.1-.12 0-.25.18-.22.31.01.06.04.12.06.19.03.09.06.15.07.2.02.09-.02.12-.25.19-.34.11-.36.14-.42.31-.05.16.01.38-.04.51-.04.1-.31.2-.28.31s.34.11.37.24c.01.05-.01.11-.08.22-.09.13-.63.26-.59.39.03.13.18.14.2.24.05.18-.32.68-.43.82-.22.27-.28.52-.41.86-.03.07-.08.15-.06.24.03.12.43.11.49.36.07.28-.12.81-.18 1.05-.04.13-.17.19-.29.24s-.22.1-.19.24c.04.16.2.24.23.37.03.1.03.21.03.35 0 1.05-.01 2.09.28 3.2.08.32.22.67.53.89.28.2.7.25 1.06.25.13 0 .26-.01.37-.01 1.19-.09 2.28-.77 3.23-1.22 1-.47 1.88-1.1 2.76-1.69.21-.14 1.59-1.34 1.82-1.34.04 0 .06.06.07.09.03.15-.31.41-.63.65-.31.23-.62.45-.6.54.03.11.34.08.37.2s-.15.3-.22.39c-.26.34-.6.57-1.01.79-.29.16-.78.43-.95.68-.04.06-.07.11-.06.15.01.06.04.08.11.08.1 0 .24-.05.39-.13.2-.11 1.63-.96 2.08-.96.04 0 .07.02.08.05.06.22-.97 1.03-1.1 1.14-.18.15-.34.29-.47.48-.24.34-.57.55-.95.8-.27.18-.54.33-.87.45-.27.1-.32.22-.51.36-.44.32-1.35.39-2.06.39zm-5.96-6.6c.13-.32.08-.8.15-1.16.15-.85.38-1.72.63-2.54a32 32 0 0 1 .8-2.33c.29-.74.63-1.46 1.02-2.14.46-.79.73-1.68 1.25-2.45.07-.1.11-.22.09-.3-.01-.05-.05-.08-.11-.08a.53.53 0 0 0 -.22.07c-.13.07-.21.39-.28.52-.13.23-.26.46-.39.68-.33.57-.63 1.16-.92 1.75-.43.89-.81 1.8-1.12 2.73-.2.6-.44 1.42-.66 2.23-.19.72-.37 1.45-.48 2.02-.1.52-.15.92-.11 1.07.01.04.07.15.15.15.14.01.18-.16.2-.22zm.85-.77c.09-.48.19-.95.32-1.42.27-.98.55-1.94.95-2.88.41-.98.84-1.94 1.29-2.9.2-.43.44-.85.64-1.28.09-.2.17-.43.29-.62.08-.12.25-.3.23-.39-.01-.05-.03-.06-.07-.06-.14 0-.51.62-.58.71-.3.44-.49.95-.72 1.42s-.45.94-.65 1.42c-.17.41-.35.82-.52 1.23-.18.41-.37.96-.57 1.56-.19.6-.38 1.25-.54 1.84-.26.97-.43 1.79-.38 1.98.02.07.05.1.07.1.11-.02.23-.66.24-.71zm2.39-10.79c-.01-.03-.13-.05-.49-.05-.29 0-.48.04-.47.08.01.05.24.07.47.07.24 0 .5-.03.49-.1zm1.39 1.03c.14 0 .3-.29.27-.4-.01-.03-.02-.04-.05-.04-.12 0-.34.26-.31.37.01.05.03.07.09.07zm.71-2.62c.12-.18.42-.45.35-.71-.01-.02-.01-.04-.02-.06-.31.07-.49.66-.64.88-.08.12-.38.39-.34.56.01.05.05.11.12.11.29 0 .41-.6.53-.78zm7.41 1.84c.16 0 .36-.04.54-.04.06 0 .22.03.31.04.06 0 .21-.02.19-.06-.03-.11-.99-.15-1.15-.16-.62-.01-1.62-.04-2.57-.06-1.23-.03-2.38-.06-2.53-.06h-.2c-.18.01-.47.03-.46.1.01.03.06.06.2.11.08.03.16.03.23.03.15 0 .29-.04.44-.04.22 0 .42.04.65.05.6.03 1.16-.04 1.75-.04.62 0 1.22.06 1.82.09.27.01.53.04.78.04z"/><path d="m299.17 386.58c-.39 0-.78-.25-1.15-.37-.36-.13-.74-.21-1.09-.34-.7-.26-1.31-.77-1.79-1.35-.49-.59-.84-1.26-.97-1.78-.03-.13-.05-.27-.02-.33.1-.18.27-.14.24-.25-.02-.09-.22-.2-.25-.29-.02-.06-.01-.19.08-.23.05-.02.1-.03.17-.03.13 0 .28.02.42.02.08 0 .16-.01.22-.04.23-.12.28-.5.38-.7.11-.24.21-.49.34-.72.06-.11.3-.3.28-.39s-.14-.18-.23-.18c-.2 0-.27.3-.41.3-.08 0-.11-.03-.12-.06-.02-.06.05-.17.08-.24.09-.26.22-.51.36-.76.31-.55.69-1.07 1.09-1.59.18-.23.3-.41.35-.69.05-.24.11-.2.33-.34.08-.05.21-.09.18-.19-.01-.04-.13-.07-.15-.12-.02-.09.07-.15.13-.2.18-.26.39-.5.6-.74.45-.53.86-1.12 1.39-1.59.33-.3 1.2-.6 2.01-.6.42 0 .83.2 1.31.2.22 0 .41-.06.64-.09.11-.02.22-.03.34-.03.15 0 .31.01.48.07.14.05.27.07.41.08.38.03.75-.04 1.13.13.42.18.8.45 1.11.76.34.34.59.74.69 1.12.03.12.04.23.03.32-.04.22-.2.14-.24.4-.05.31-.07.63-.11.94-.04.29-.11.57-.24.83-.12.23-.37.41-.42.67-.03.14.02.28 0 .41-.02.12-.19.26-.16.38.01.06.08.09.16.09s.18-.03.26-.09c.25-.2.39-.5.51-.77.05-.12.37-1.67.53-1.67.03 0 .06.03.07.08.05.21-.12.97-.14 1.06-.03.14-.33.81-.27 1.06.02.08.09.11.2.11.37 0 1.14-.38 1.33-.45.49-.18.97-.35 1.45-.53.2-.08.26-.13.38-.27.09-.1.2-.2.32-.2.09 0 .16.07.29.07.17 0 .49-.19.67-.27.4-.17.72-.39 1.14-.54.27-.09.69-.36 1.08-.36.05 0 .08.02.08.04.01.06-.12.17-.57.33-.29.11-.52.29-.8.41-.25.11-.5.22-.74.34-.21.11-.32.21-.31.27 0 .03.04.04.11.04.22 0 .53-.19.69-.26.29-.12.6-.23.89-.35.27-.11.54-.22.81-.34.13-.06.59-.32.73-.32.02 0 .05.01.06.02.02.09-.37.22-.53.3-.3.15-.61.29-.92.43-.61.27-1.22.54-1.84.8-.53.23-1.15.43-1.62.73-.1.06-.15.12-.14.17.01.04.07.06.19.06.19 0 .38-.14.56-.16-.04.08-.29.22-.51.37-.18.12-.33.24-.3.32.01.03.05.04.09.04.3-.01 1.2-.45 1.34-.51.12-.05.56-.3.81-.3.08 0 .11.03.11.06.01.1-.18.29-.26.36-.33.32-.71.59-1.14.83-.95.53-2.14.71-3.27 1-.32.08-.67.11-.97.19-.21.06-.39.14-.51.29-.18.21-.35.44-.52.65-.07.08-.14.22-.24.31-.06.05-.12.09-.2.1-.02-.1 0-.18.05-.27.18-.31.72-.56.65-.85-.01-.05-.04-.07-.07-.07-.16.01-.45.45-.59.66-.08.12-.2.23-.3.36-.07.1-.13.2-.16.3-.02.09.06.21.01.28-.03.06-.13.09-.2.16-.14.15-.16.35-.31.5-.24.24-.58.43-.86.64-.48.36-.88.78-1.42 1.09-.55.31-1.1.55-1.77.72-.53.16-.94.55-1.53.55zm-.29-2.1c.33-.09.68-.2.95-.36.25-.15.28-.41.5-.58.25-.19.51-.38.77-.57.2-.14.49-.1.63-.27.16-.18.18-.42.36-.61.27-.29.54-.58.8-.87.12-.14.31-.27.28-.4a.441.441 0 0 0 -.1-.17c-.21-.21-.68-.38-.95-.55-.37-.23-.67-.49-.94-.78-.22-.23-.42-.47-.63-.72-.14-.17-.2-.22-.3-.22-.07 0-.16.03-.26.15-.21.25-.4.51-.55.78-.15.25-.3.51-.59.67-.13.07-.17.03-.24.15-.06.09-.06.26-.1.37-.27.63-.65 1.21-.97 1.81-.39.73-.77 1.55-.61 2.17.06.22.65.38.85.38.45-.02.94-.33 1.1-.38zm5.06-5.07c.6 0 .75-.8.91-1.15.2-.42.53-.91.4-1.42-.02-.06-.08-.12-.1-.17-.03-.09.04-.12.12-.14.06-.02.12-.03.16-.08.03-.04.03-.1.01-.17-.03-.12-.1-.25-.13-.37-.09-.35.09-.68 0-1.04-.02-.09-.06-.22-.21-.22-.07 0-.08.13-.2.2-.49.29-.91.62-1.26 1.02-.37.42-.84.9-.94 1.44-.05.27-.18.51-.28.76-.08.22-.14.45-.07.71.09.27.92.63 1.59.63zm.78 2.84c.27-.14.29-.17.46-.42.08-.12.48-.39.44-.54-.03-.12-.14-.15-.26-.15-.16 0-.34.08-.41.12-.22.17-.36.44-.53.65-.12.15-.95.93-.87 1.22.01.06.05.08.09.07.25 0 .92-.86 1.08-.95zm-.88-.42c.18 0 .64-.54.61-.65-.01-.03-.03-.05-.06-.05-.16 0-.61.52-.6.66.01.02.03.04.05.04zm2.33-3.06c.13-.24.21-.5.3-.76.08-.27.22-.51.33-.78.04-.1.15-.55.13-.62-.02-.06-.06-.11-.08-.11-.16 0-.24.37-.28.41-.07.07-.17.07-.23.16-.06.11-.02.3-.02.42-.02.3-.21.67-.38.99-.15.29-.29.54-.26.64.02.06.04.09.07.09.13.01.31-.24.42-.44z"/><path d="m315.7 386.86a.693.693 0 0 0 -.2-.03c-.24 0-.45.1-.66.1s-.41-.04-.62-.1c-.29-.08-.58-.09-.87-.14-.57-.1-1.14-.31-1.66-.56-.23-.11-.46-.23-.68-.37-.27-.17-.36-.39-.59-.58-.34-.29-.64-.85-.73-1.22-.05-.18-.03-.36-.01-.53.02-.18.01-.41.08-.57.06-.12.2-.19.27-.3.09-.13.14-.27.26-.38.13-.12.31-.21.49-.28.18-.08.37-.15.53-.25.1-.06.42-.44.63-.44.11 0 .21.06.23.11.05.19-.53.52-.6.65-.08.15-.1.25-.23.38-.12.11-.3.21-.26.38.02.07.15.17.17.24.02.1-.06.19-.04.27.04.14.12.16.35.23.44.12.85.3 1.3.38.53.1 1.09.19 1.61.19.31 0 .65-.02.94-.09.22-.05.29-.23.39-.23.21 0 .15.13.36.13.28 0 .59-.11.88-.15.2-.03.42-.02.6-.1.21-.08.27-.24.42-.37.26-.23.95-.27.83-.73-.1-.37-.92-.67-1.3-.82-.25-.1-.51-.19-.77-.29-.25-.09-.44-.23-.67-.35-.47-.24-.97-.19-1.33-.58-.35-.38-.89-.64-1.3-.98-.2-.17-.38-.35-.56-.53-.2-.2-.29-.42-.46-.63-.09-.1-.18-.21-.21-.31-.09-.36.3-.71.22-1.02-.03-.13-.15-.24-.19-.42-.05-.18.01-.34.11-.49.23-.37.47-.8.86-1.06.38-.26.81-.48 1.24-.69.94-.46 1.93-.87 2.96-1.21.51-.17 1.33-.44 1.81-.44.51 0 .78.14 1.29.24.28.06.56.12.84.2.26.07.57.23.83.25.1.01.19-.04.3 0 .1.04.2.2.27.27.18.21.38.41.55.62.04.06.07.12.09.18.08.3-.15.63-.51.63-.17 0-.31-.1-.55-.1-.07 0-.1.01-.19.05-.24.1-.48.19-.74.26-.53.16-1.06.32-1.6.45-.24.06-.5.08-.75.12-.29.05-.52.16-.76.27-.41.19-.87.33-1.32.47-.51.17-1.02.34-1.45.61-.19.12-.38.23-.55.36-.18.15-.31.29-.55.38-.12.05-.2.1-.18.17.01.05.06.1.16.17.22.15.44.22.71.28.24.06.49.15.74.26.33.15.66.32.96.47.54.27 1.04.57 1.54.88.2.13.43.23.62.36.23.16.41.37.61.55.4.36.79.66 1.04 1.1.26.45.42.92.62 1.38.07.16.14.31.19.49.01.05.01.07.02.13.01.19.09.38 0 .58-.17.34-.47.72-.86.91-.41.2-.78.46-1.24.61-.23.08-.47.18-.72.26-.24.08-.5.15-.76.17-.25.01-.49.06-.72.12-.26.06-.53.08-.81.09-.1.01-.21.02-.31.02-.19.03-.29-.05-.41-.08zm21.49-6.08c-.05.33-.09.66.01 1.02.04.17.12.33.17.5.01.04.02.08.02.11.03.2.06.77.11.98.01.04.02.07.04.11.11.23.37.41.62.48.18.05.26.06.32.1.14.1.09.13.33.21.07.02.64.02 1.33.02.47 0 2.15-.48 2.51-.67.7-.35 1.53-.72 2.16-1.13.54-.35 1.05-.73 1.55-1.14.25-.21.52-.41.76-.62.11-.1.32-.28.51-.28.11 0 .22.07.27.29.07.26-.22.43-.41.57-.3.23-.6.47-.92.68-.3.2-.59.4-.88.6-.27.19-.71.39-.88.66-.03.04-.11.28-.09.37.01.04.05.09.1.09.19 0 .58-.22.65-.26.11-.05.21-.17.35-.17.11 0 .1.07.25.07.16 0 .15-.18.2-.26.07-.13.17-.23.32-.31.1-.05.23-.05.35-.05.12-.01.23-.02.28-.11.04-.08 0-.16 0-.22 0-.08.05-.13.37-.13.03 0 .07 0 .09-.02.09-.06.02-.15.05-.24.1-.26.43-.45.59-.7.06-.09.09-.37.2-.37.07 0 .14.11.15.15.04.21-.2.5-.25.63-.06.21-.02.43-.09.64-.09.25-.3.46-.49.66-.18.19-.32.39-.47.59-.18.23-.45.35-.7.52-.24.17-.41.38-.68.51-.32.16-.67.24-.96.44-.58.42-1.21.87-1.93 1.15-.7.27-1.38.3-2.25.3-.67 0-1.37-.03-2.04-.3-.72-.29-1.69-1.62-2.38-2-.33-.18-.52-.46-.74-.72-.18-.21-.4-.32-.6-.51-.36-.34-.8-1.57-.9-1.98-.41-1.59 0-2.19.18-3.7.09-.77.25-1.53.43-2.27.16-.68.5-1.26.73-1.91.13-.35.24-.7.36-1.05.1-.3.2-.78.44-1.01.05-.04.09-.05.14-.05.07 0 .26-.01.23-.13-.01-.04-.1-.07-.12-.15-.06-.26.18-.55.35-.75.09-.1.21-.19.29-.3.13-.18.05-.24.1-.44.05-.21.33-.27.43-.48.09-.19.16-.43.28-.57.1-.12.46-.22.42-.34-.02-.06-.18-.11-.2-.18-.03-.11.25-.12.38-.16.22-.08.18-.24.16-.34-.01-.08 0-.13.16-.13.02 0 .04 0 .05-.01.07-.04.07-.09.06-.13s-.04-.09-.05-.14c-.02-.07.06-.1.15-.12.08-.03.17-.06.22-.12.08-.1.19-.21.17-.26-.01-.06-.08-.09-.1-.14-.01-.04.03-.05.1-.07.06-.01.13-.03.21-.07.11-.06.8-.62.73-.89-.01-.05-.03-.05-.06-.05-.09 0-.2.13-.31.13-.05 0-.07-.02-.08-.05-.03-.11.21-.36.36-.4.09-.02.14-.01.2-.01.05 0 .1-.01.18-.06.16-.1.29-.26.4-.39.13-.15.44-.42.46-.62 0-.04-.12-.1-.12-.14 0-.07.01-.1.04-.18.06-.14.21-.26.3-.38.32-.4.76-.93 1.27-1.33.42-.33.88-.56 1.47-.55.08 0 .16.01.24.02.63.08 1.24.1 1.72.55.55.52 1 .92 1.17 1.6.35 1.35-.5 2.61-.99 3.77-.67 1.58-1.55 3.05-2.58 4.45-.56.76-1.16 1.49-1.79 2.21-.43.49-.83.99-1.25 1.48-.44.51-.89 1.01-1.41 1.47-.2.17-.42.36-.69.46-.12.05-.24.06-.38.09s-.2.05-.27.05c-.06 0-.12-.02-.23-.06-.17-.07-.29-.12-.38-.12s-.15.05-.2.21c-.1.3-.13.63-.19.94-.1.54-.06 1.09-.09 1.65.02.34-.04.62-.09.91zm-1.53-3.61c.04-.31.09-.66.18-.95.08-.25.26-.49.32-.74.03-.13-.01-.24.04-.38.07-.19.1-.35.15-.55.31-1.18.92-2.33 1.5-3.41.6-1.11 1.23-2.16 1.95-3.22a60.05 60.05 0 0 1 2.28-3.1c.05-.07.35-.36.31-.5-.01-.04-.05-.07-.12-.08-.13-.02-.17.18-.25.2-.17.06-.1-.07-.23-.06-.25.01-.45.3-.49.52-.02.14.01.25-.06.39-.08.16-.24.22-.34.36-.2.25-.31.55-.52.8-.25.31-.52.61-.74.95-.34.53-.68 1.09-.93 1.66-.11.24-.35.37-.45.63-.14.36-.31.68-.51 1.02-.36.62-.69 1.28-.92 1.95-.22.63-.52 1.21-.71 1.86-.23.79-.5 1.57-.67 2.37-.35 1.62-.59 3.34-.49 5.05-.01-.02-.01-.03.01.05.01.06.05.1.1.15.18-.15.06-.6.06-.81.01-.41.05-.81.08-1.22.04-.73.06-1.52.25-2.21.07-.27.16-.46.2-.73zm-.7 4.76c.01.01.02.03 0 0zm8.14-15.44c-.13.44-.68.78-.92 1.17-.21.33-.43.65-.67.96-.27.36-.55.72-.82 1.08-.08.1-.2.35-.19.42.01.06.05.1.07.17.06.22-.22.45-.35.61-.29.4-.5.85-.76 1.27-.33.53-.51 1.11-.73 1.69-.11.28-.32.6-.47.9-.13.25-.21.49-.16.69.02.09.06.12.12.12.25 0 .73-.7.79-.76.35-.41.71-.8 1.05-1.22.29-.36.6-.72.9-1.08.37-.45.75-.9 1.1-1.36a30.048 30.048 0 0 0 1.65-2.37 22.92 22.92 0 0 0 1.3-2.37c.22-.46.44-.91.6-1.39.03-.08.19-.4.3-.71.08-.23.14-.45.11-.57-.03-.11-.09-.15-.19-.15-.34 0-.97.71-1.07.82-.37.39-.74.77-1.08 1.18-.26.31-.46.52-.58.9z"/><path d="m350.23 386.36c-.22.01-.44.04-.66 0-.15-.03-.27-.08-.41-.13-.27-.09-.16.01-.53.01-.14 0-.25-.06-.43-.15-.13-.06-.28-.16-.43-.2-.12-.03-.2-.02-.31-.08s-.17-.15-.22-.24c-.06-.1-.11-.21-.21-.27-.06-.03-.09-.05-.12-.05-.09 0-.09.1-.21.1-.16 0-.53-.53-.63-.65a3.7 3.7 0 0 1 -.38-.59.597.597 0 0 1 -.08-.19c-.04-.15 0-.27.03-.44.05-.24.04-.49.07-.73.04-.37.07-.73.22-1.07.16-.38.29-.8.51-1.16.09-.15.21-.3.34-.43.16-.16.19-.33.28-.52.19-.38.47-.84.8-1.15.3-.28.46-.65.69-.97.13-.19.32-.37.47-.55.12-.14.15-.32.28-.45.32-.36.59-.57.87-.95.08-.1.11-.17.1-.21s-.04-.05-.11-.05c-.11 0-.53.2-.71.36.17-.37.58-.62.89-.91s.63-.58.99-.84c.18-.13.37-.29.62-.35.36-.08.81.04 1.17.04.37 0 .72-.03 1.09-.03a4.801 4.801 0 0 1 1.56.26c.3.1.57.24.79.43.13.11.42.6.61.6.2 0 .35-.39.41-.51.11-.2.3-.32.47-.4.17-.07.32-.1.57-.1.28 0 .44.03.58.08.12.04.23.1.39.15.14.05.28.06.32.2.01.05 0 .11.01.16 0 .02.01.04.03.05.12.13.38.11.54.21.22.15.44.44.61.63.1.11.14.26.16.32.08.31-.21.61-.36.85-.24.4-.45.81-.75 1.17-.31.38-.36.97-.5 1.43-.13.42-.25.84-.36 1.27-.15.6-.27 1.21-.32 1.83-.01.11-.09.4-.04.57.02.09.08.15.19.15.22 0 .54-.26.65-.33.42-.25.88-.44 1.3-.69.26-.15.46-.35.65-.55.17-.19.47-.3.7-.45.15-.1.24-.17.34-.17.09 0 .18.05.32.17.13.11.19.18.27.31.08.15.16.16.25.16.18 0 .51-.36.72-.51.23-.17.45-.35.68-.52s.48-.31.73-.47c.1-.06.19-.17.3-.26.1-.08.2-.15.31-.16.01.06-.07.17-.05.24.01.03.03.05.1.05.13 0 .34-.23.42-.28.15-.1.33-.19.48-.29.13-.1.26-.26.39-.39.1-.1.2-.18.29-.18.05 0 .1.04.12.12.01.04-.18.38-.28.53-.13.2-.31.37-.5.54-.2.17-.42.34-.62.5l-1.03.85c-.21.17-.42.33-.62.51-.04.03-.18.12-.2.18-.01.03.02.05.13.05.14 0 .39-.22.49-.29.21-.14.41-.3.61-.45.39-.3.8-.58 1.17-.89.09-.08.4-.5.62-.5.06 0 .13.03.16.12.04.14-.09.38-.14.46-.11.18-.27.33-.43.47-.35.32-.72.63-1.08.94-.38.32-.75.63-1.1.96-.15.14-.2.32-.34.47-.13.15-.31.27-.48.4-.36.26-.74.5-1.1.76-.37.27-.77.51-1.21.7-.41.18-.85.32-1.34.42-.07.01-.14.02-.2.02-.18 0-.34-.05-.56-.07-.26-.03-.49-.09-.73-.21-.29-.16-.45-.32-.66-.53-.19-.19-.38-.23-.61-.37-.08-.05-.1-.08-.17-.15-.14-.12-.27-.2-.42-.32-.23-.18-.39-.41-.55-.61-.37-.48-.63-.97-.71-1.29l-.03-.1c-.05-.19-.08-.33-.04-.5.01-.06.06-.23.02-.36-.02-.08-.07-.14-.18-.15-.14-.01-.35.29-.42.36-.2.2-.34.44-.52.65-.28.33-.63.62-.9.95-.3.37-.51.8-.85 1.15-.29.3-.64.57-.93.89-.17.18-.31.39-.51.55-.18.14-.39.23-.54.39-.14.16-.26.31-.41.42-.18.15-.37.23-.65.25zm-1.57-1.89c.18-.12.33-.28.52-.41s.36-.28.5-.45.28-.53.57-.53c.08 0 .14.04.23.02.1-.02.08-.1.11-.15.1-.13.21-.22.34-.33.17-.15.31-.33.44-.5.05-.06.06-.16.1-.21.06-.08.18-.1.27-.17.4-.29.68-.74 1-1.09.14-.16.29-.31.44-.46.18-.19.37-.38.54-.58l.49-.58c.13-.15.31-.25.43-.38s.15-.32.31-.44c.15-.12.25-.17.34-.33.09-.17.27-.18.41-.3.16-.14.43-.42.39-.55-.01-.04-.03-.08-.02-.1.04-.07.11-.05.18-.11.2-.15.24-.36.34-.56.08-.16.35-.5.29-.73-.02-.09-.23-.23-.37-.23-.19 0-.38.07-.5.22-.16.2-.23.36-.51.46-.47.17-.94.3-1.34.56-.22.14-.45.26-.67.4s-.34.33-.53.49c-.07.06-.17.17-.26.2s-.19 0-.27.02c-.21.06-.37.29-.52.42-.35.29-.66.63-.93.97-.17.21-.36.42-.54.63-.2.23-.39.45-.58.69-.29.36-.55.74-.74 1.13-.1.22-.11.45-.23.66-.13.23-.22.46-.27.71-.07.29-.14.55-.19.78-.07.3-.1.54-.04.76.03.1.08.14.14.14.03-.01.08-.04.13-.07zm4.78-3.41c.11-.14.3-.29.46-.43.18-.16.32-.31.29-.45-.01-.05-.04-.07-.09-.07-.22 0-.76.56-.79.61-.05.06-.54.54-.49.73.01.05.06.08.15.08.22-.01.4-.38.47-.47zm26.71 5.79c-.28-.1-.36-.28-.46-.49-.04-.08-.14-.25-.22-.25-.03 0-.05.02-.07.06-.05.09.04.26-.15.26s-.5-.23-.61-.33c-.3-.27-.49-.7-.58-1.05-.15-.59.19-1.13.21-1.69.01-.12-.04-.24-.02-.36.01-.11.08-.22.12-.32.11-.28.19-.58.28-.87.07-.23.19-.42.19-.66 0-.27.15-.52.23-.77.08-.26.21-.47.32-.71.11-.23.14-.5.19-.74.05-.25.13-.47.26-.69.13-.25.17-.53.27-.79.09-.24.22-.47.32-.71.12-.27.12-.54.2-.82.07-.24.2-.45.27-.69.09-.28.14-.57.25-.84.11-.24.2-.46.15-.74-.02-.11-.06-.2.02-.28.08-.09.26-.11.39-.16.32-.13.54-.32.97-.32.29 0 .6.07.88.2.31.15.51.35.7.59.18.22.4.44.46.68.01.06.02.11.01.17-.04.32-.1.64-.18.95-.1.39-.24.78-.39 1.17-.16.43-.34.85-.52 1.26-.23.55-.46 1.09-.7 1.64-.25.57-.49 1.14-.73 1.71-.22.54-.43 1.08-.6 1.64-.06.2-.11.41-.17.61-.05.16-.14.29-.12.39.03.12.09.21.22.21.18 0 .57-.37.81-.52.56-.36 1.06-.76 1.55-1.17.48-.41.94-.84 1.38-1.28.22-.22.34-.48.55-.71.19-.2.47-.38.66-.59.43-.49.85-.99 1.24-1.5.34-.44.65-.88.95-1.34.18-.27.35-.55.52-.83.15-.24.29-.49.43-.73.15-.26.29-.52.44-.78.13-.23.31-.4.25-.68-.03-.12.04-.2.14-.26.09-.06.21-.11.29-.18.18-.13.32-.16.51-.16.1 0 .22.01.36.02.34.02.63.19.96.22.28.02.88.13.94.36.05.21-.14.28-.19.43-.03.1.01.22-.02.32-.03.13-.15.26-.22.37-.32.49-.64.99-.95 1.49-.14.24-.28.49-.4.73s-.29.43-.46.65c-.18.23-.27.5-.45.72-.08.1-.18.17-.25.27-.09.14-.16.29-.25.43-.14.21-.31.41-.47.61-.18.24-.32.5-.52.72-.17.18-.36.29-.47.51-.05.1-.1.2-.15.31-.03.07-.04.11-.03.14.01.05.06.09.09.22.06.24-.22.39-.5.53-.19.1-.38.19-.45.3-.06.1-.05.23-.1.33a.8.8 0 0 1 -.24.28c-.23.18-.48.32-.68.52-.45.44-.97.83-1.52 1.2-.52.35-1.06.67-1.59.99s-1.02.65-1.69.79a5.1 5.1 0 0 1 -1.02.12c-.3.02-.58-.02-.84-.11zm-.5-2.22c.09-.39.21-.78.31-1.17.09-.37.25-.72.34-1.09.11-.44.21-.87.32-1.3.09-.35.22-.69.35-1.04.02-.07.08-.19.06-.27-.02-.07-.06-.09-.11-.09s-.11.03-.14.07c-.28.32-.42.79-.55 1.17l-.42 1.23c-.07.22-.15.44-.22.66a7.1 7.1 0 0 0 -.2.76c-.05.24-.1.48-.15.73-.04.2-.16.49-.12.65.04.15.17.12.27.07.16-.08.22-.23.26-.38zm7.27-3.62c.18-.18.34-.38.31-.47-.02-.06-.07-.08-.14-.07-.28.03-.85.54-.8.73.03.12.1.14.18.14s.27-.15.45-.33zm11.62 5.85c-.24 0-.47-.03-.72-.1-.78-.22-1.47-.59-2.03-1.11-.23-.22-.51-.4-.75-.61-.19-.17-.3-.44-.35-.63-.05-.21-.06-.42-.07-.47-.05-.19-.33-.47-.43-.89-.05-.21-.05-.4.06-.55.07-.09.24-.11.22-.25-.02-.1-.18-.15-.23-.35-.07-.27.05-.56.09-.83.03-.24-.03-.61.11-.81.06-.09.11-.12.14-.12.05 0 .07.02.08.06.02.07-.01.18 0 .25.01.02.02.05.04.05.18 0 .27-.38.29-.49.01-.07.06-.13.03-.22-.03-.13-.27-.07-.31-.27-.03-.13.14-.22.18-.32.04-.09.02-.2.06-.3.11-.24.34-.47.49-.69.07-.09.19-.12.29-.17.11-.05.19-.11.15-.28a.228.228 0 0 0 -.06-.12c-.13-.11-.34-.08-.37-.2-.01-.03.02-.11.02-.13-.01-.1-.06-.15-.04-.27.04-.24.27-.37.29-.58.01-.14-.05-.1.04-.24s.19-.27.26-.41c.13-.28.23-.57.32-.86.1-.3.29-.52.42-.78.14-.27.3-.55.49-.81.15-.22.24-.55.47-.72.13-.1.46-.25.74-.25.21 0 .26.17.4.17.11 0 .23-.09.32-.09.13 0 .25.1.37.17.09.05.16.06.23.06.08 0 .16 0 .27.04.44.15.64.44.83.75.13.22.33.48.39.73.03.11.03.22-.01.31-.05.12-.25.22-.35.33-.12.14-.2.31-.33.44-.24.26-.39.48-.58.77-.23.35-.49.69-.74 1.03-.23.33-.45.66-.61 1.03-.34.8-.73 1.56-1.08 2.33-.32.72-.6 1.46-.75 2.27-.03.18-.05.26-.02.38.04.14.19.19.23.32.06.24-.25.39-.18.65.01.06.04.12.08.19.18.3.5.4.86.4.62 0 1.35-.3 1.68-.43.53-.22 1.09-.39 1.62-.59s.92-.51 1.35-.81c.43-.31.96-.55 1.44-.82.09-.05.42-.29.75-.48.22-.12.45-.22.62-.22.06 0 .09.03.09.05-.01.08-.44.3-.41.46.02.06.16.16.3.16.17 0 .7-.33.96-.33.1 0 .14.05.16.14.04.15-.18.57-.57.9-.4.34-.69.73-1.16 1.02-.52.33-.89.77-1.4 1.11-.3.21-.59.4-.9.58-.28.16-.57.31-.9.44-.32.13-.76.23-1.02.41-.1.07-.11.16-.2.24-.15.14-.26.11-.47.12-.37.02-.43.21-.76.24-.14-.01-.28 0-.43 0zm-3-3.76c.01-.1 0-.59-.04-.76-.03-.12-.16-.23-.27-.23-.2 0-.23.42-.18.59.01.06.07.22.12.38.03.09.15.2.25.21.05 0 .1-.05.12-.19zm.21-1.49a.428.428 0 0 0 -.4-.3c-.15 0-.26.11-.22.26.03.13.14.26.29.26s.35-.12.33-.22zm-.33-.76c.07 0 .17-.08.29-.37.02-.06-.01-.12.02-.17.04-.06.16-.06.2-.12.08-.13.05-.42.06-.57.01-.07.12-.32.09-.43-.01-.05-.06-.08-.09-.08-.18 0-.35.63-.38.72-.03.13-.37.7-.31.92.02.04.06.1.12.1zm.95-2.33c-.01-.03-.05-.09-.09-.09-.15 0-.3.35-.27.44.01.04.03.06.07.06.15 0 .32-.31.29-.41zm.18-.5c-.01-.04-.03-.07-.07-.07-.09 0-.14.09-.12.16.01.04.04.07.1.07.07 0 .11-.11.09-.16zm4.86-9.16c-.34-.1-.61-.11-.91-.32-.32-.22-.92-.63-.99-.89-.05-.21.12-.41.15-.61.07-.5.23-1.17.57-1.7.33-.51.82-.9 1.57-.9.61 0 1.26.14 1.79.51.22.16.43.43.63.61.28.25.46.44.52.7.09.36-.09.53-.3.8-.13.17-.16.4-.35.54-.13.09-.32.12-.45.23s-.25.23-.39.33c-.26.17-.55.29-.8.48-.23.18-.4.29-.65.29-.1 0-.23-.03-.39-.07z"/><path d="m418.25 387.19c-.47-.2-1.02-.52-1.37-.84-.18-.17-.36-.35-.5-.54-.15-.2-.23-.42-.45-.58-.44-.32-.74-.6-1-1.02-.29-.46-.5-.93-.74-1.4-.12-.24-.26-.49-.32-.74-.04-.17-.04-.34-.05-.51-.01-.1.01-.33-.03-.48-.02-.09-.06-.15-.14-.15-.15 0-.3.33-.36.4-.27.38-.53.76-.79 1.14-.28.4-.57.8-.82 1.22-.11.18-.21.37-.33.55-.11.17-.31.27-.46.42-.14.15-.3.31-.43.48-.14.17-.21.36-.37.52-.14.14-.33.22-.48.34-.19.15-.37.3-.57.44-.17.12-.33.24-.57.24-.25 0-.67-.2-.93-.3-.24-.1-.5-.16-.72-.31-.25-.17-.48-.37-.73-.55-.38-.28-.71-.67-.98-1.09-.28-.45-.49-.95-.62-1.44-.11-.41-.2-.83-.03-1.2.09-.18.24-.3.29-.5.06-.23.09-.47.17-.7.13-.43.31-.84.51-1.25.21-.42.45-.82.7-1.22.26-.4.53-.78.83-1.16.12-.15.27-.28.37-.43.12-.18.27-.28.44-.42.09-.08.23-.24.19-.38-.01-.05-.08-.13-.14-.13-.11 0-.23.12-.29.19-.14.14-.22.3-.36.44-.17.16-.35.3-.51.47-.15.16-.29.34-.46.49-.05.05-.12.07-.17.07-.04 0-.08-.02-.08-.05-.01-.03 0-.07.03-.12.09-.18.17-.38.27-.55s.29-.31.43-.46c.32-.35.59-.73.92-1.08.13-.14.26-.28.41-.41.16-.14.38-.24.49-.4.23-.36.77-.56 1.16-.81.19-.12.32-.29.49-.43.19-.15.42-.25.66-.35.27-.11.57-.25.89-.25.25 0 .5.07.76.13.29.06.61.11.91.19.27.07.53.16.77.29.21.12.38.28.54.44.15.14.23.22.32.22.06 0 .12-.04.2-.13.32-.36.58-.74.85-1.12.1-.14.2-.25.27-.4.07-.18.25-.3.34-.48.21-.39.36-.8.59-1.18.21-.35.23-.77.45-1.12.21-.36.41-.76.53-1.15.06-.19.02-.35.13-.51s.07-.28.1-.46c.03-.16.19-.28.27-.42.11-.2.19-.41.29-.61.22-.43.5-.83.79-1.23.25-.35.5-.69.71-1.06.08-.15.12-.34.29-.44.14-.08.4-.09.63-.09.17 0 .53.02.83.22.18.12.25.23.48.31.08.03.16.02.24.06.09.05.11.13.19.18.18.14.41.15.55.34.14.18.17.4.27.59.05.09.17.19.19.28.03.1-.02.18-.04.27-.04.18-.09.32-.17.49-.04.09-.05.2-.1.28-.06.08-.17.12-.25.19-.37.27-.66.58-.91.93-1.04 1.45-1.9 2.98-2.73 4.53-.81 1.54-1.55 3.11-2.15 4.74-.15.42-.34.82-.49 1.24-.15.41-.22.83-.31 1.26-.1.45-.25.89-.28 1.36-.01.16-.07.32-.1.48-.05.23.16.43.13.66-.01.08-.04.2-.09.26-.04.05-.11.06-.15.1-.13.15-.04.29.01.45.01.02.01.04.01.06.07.51.14.81.28 1.33.09.33.27.99.71 1.1.12.03.25.04.38.04.4 0 .82-.12 1.14-.2.57-.13 1.12-.29 1.66-.46.51-.16 1.01-.32 1.51-.49.24-.08.48-.19.73-.28.23-.08.47-.15.73-.15.23 0 .27-.12.44-.19.06-.03.14-.03.2-.06.04-.02.03-.07.09-.09.05-.01.13.02.19.02.24 0 .45-.11.63-.2l.81-.36c.04-.02.32-.18.45-.18.02 0 .05 0 .06.04.03.11-.51.36-.57.42-.14.13-.17.28-.36.38-.21.11-.43.2-.61.35-.32.26-.74.41-1.14.58-.09.04-.31.12-.28.21.01.05.08.09.1.12.01.03.03.06.03.07.01.02-.01.05-.05.09s-.1.08-.09.13c.02.06.14.1.19.1.15 0 .32-.14.43-.17.21-.05.36-.13.55-.18.5-.12.9-.46 1.27-.72.15-.11.52-.42.68-.41.03 0 .05.01.06.03.02.05-.03.15-.09.22-.25.28-.57.5-.83.78-.14.14-.28.25-.4.41-.13.17-.32.29-.51.41a22 22 0 0 1 -1.35.74c-.21.11-.35.22-.5.37-.17.16-.4.26-.61.38-.22.13-.38.38-.67.38-.13 0-.25-.07-.4-.07-.19 0-.46.11-.76.22-.34.13-.71.27-1.02.27-.47.01-.96-.11-1.4-.29zm-10.94-2.94c.96 0 1.59-.99 2.04-1.56.31-.4.6-.81.89-1.21.11-.14.18-.34.32-.46.07-.06.17-.08.24-.15.07-.08.1-.18.16-.27.1-.14.24-.25.33-.4.12-.2.23-.4.35-.6.24-.39.47-.78.7-1.18.1-.18.19-.37.3-.54.05-.08.11-.17.19-.24.04-.03.05-.07.11-.07.04 0 .11.02.17.02.05 0 .1-.04.08-.09-.01-.04-.05-.08-.07-.14s-.02-.09.01-.17c.07-.21.21-.38.33-.56.24-.36.4-.76.66-1.1.08-.1.17-.17.15-.26-.01-.04-.04-.08-.1-.13-.08-.07-.23-.09-.26-.21-.02-.07.07-.09.04-.22-.02-.06-.07-.08-.13-.08-.08 0-.19.03-.28.06-.23.07-.44.18-.63.29-.19.1-.39.2-.57.31-.21.12-.35.3-.55.43-.39.25-.63.56-.97.85-.32.27-.66.52-.97.81-.28.27-.48.58-.78.83-.32.27-.6.61-.78.97-.22.44-.46.88-.63 1.34-.09.24-.16.48-.22.73-.05.2-.16.35-.25.53-.22.44-.22 1.02-.23 1.51-.01.25-.06.5.01.77.03.17.27.19.34.19zm4.88-3.23c0-.03-.02-.04-.05-.04-.16 0-.34.22-.32.29.01.03.03.05.08.05.14 0 .3-.21.29-.3zm1.22-1.8c-.02-.09-.06-.11-.13-.11-.14 0-.46.44-.43.55.01.05.05.08.09.08.19 0 .53-.32.47-.52zm.94-1.97c-.01-.04-.03-.06-.1-.06-.11 0-.25.23-.22.36 0 .02.02.07.03.09.11-.05.32-.28.29-.39zm1.09 5.31c-.02-.09-.09-.17-.09-.25 0-.11.13-.14.17-.25.08-.27.06-.6.08-.89.02-.3.05-.61.1-.91.11-.69.29-1.36.5-2.02.15-.49.32-.97.49-1.45.09-.25.18-.5.26-.75.05-.14.09-.29.14-.43.04-.1.18-.28.14-.41-.01-.04-.03-.06-.05-.06-.12 0-.34.33-.38.41-.05.09-.06.2-.13.29-.07.1-.16.15-.19.27-.02.09.01.2-.04.29-.05.1-.14.15-.18.26-.11.26-.27.5-.38.76-.09.22-.15.46-.21.69-.04.13-.07.25-.13.38-.06.15-.04.25-.05.4-.01.14-.1.27-.12.42s-.02.3-.04.45c-.04.32-.13.62-.15.94-.02.24-.01.64 0 1.03.02.43.05.85.08.97.01.05.04.06.06.06.05 0 .14-.11.12-.2zm9.77.02c-.11 0-.16-.02-.16-.05-.02-.07.21-.21.25-.23.19-.11.38-.22.58-.32s.41-.18.59-.3c.07-.05.25-.23.38-.23.05 0 .08.02.08.05a.17.17 0 0 1 -.04.13c-.12.13-.38.28-.55.39-.16.11-.32.19-.5.28-.28.14-.4.28-.63.28z"/><path d="m426.84 386.58c-.17 0-.35-.02-.55-.08-.71-.19-1.26-.41-1.76-.9-.2-.19-.38-.33-.61-.49-.3-.21-.29-.46-.45-.73-.11-.18-.38-.43-.43-.63-.01-.03-.01-.05-.01-.08.01-.11.11-.14.16-.23.07-.12.07-.25.08-.39.02-.26.02-.53.09-.78.03-.11.1-.19.15-.29.07-.13.05-.24.07-.38.05-.27.21-.51.39-.74.15-.19.31-.39.41-.59.1-.21.04-.44.25-.6.17-.13.29-.3.35-.36.05-.04.13-.06.15-.09.04-.06-.02-.09 0-.14.04-.1.1-.1.17-.17.08-.08.07-.17.11-.27.05-.11.14-.21.19-.32.1-.24.07-.5.19-.73.12-.24.26-.47.45-.68.17-.18.38-.33.55-.52.19-.2.27-.45.45-.65.07-.09.15-.16.27-.21.1-.04.21-.03.28-.12.05-.07.01-.18.05-.25.05-.09.15-.13.24-.2.22-.16.36-.38.56-.55.22-.19.47-.36.71-.52.49-.33.92-.67 1.44-.96.23-.13.41-.32.7-.37.22-.04.49-.05.75-.05h.44c.32 0 .67.11 1 .27.28.14.55.31.75.49.2.17.3.58.57.58.1 0 .15-.03.25-.03.11 0 .15.06.17.13.03.09.02.2.1.2.07 0 .17-.09.29-.09.11 0 .16.05.19.12s.05.17.13.25c.13.13.28.11.43.11.07 0 .14 0 .21.03.18.08.44.4.58.53.26.26.5.61.58.94.05.19.05.37-.03.52-.24.48-.31 1.02-.45 1.53-.16.56-.34 1.11-.53 1.66-.14.42-.23.86-.36 1.28-.11.36-.27.7-.36 1.08-.08.34-.1.75-.18 1.09-.03.15-.17.42-.11.63.05.2.25.24.58.24.3 0 .79-.14 1.29-.35.44-.18.88-.4 1.21-.62.4-.26.86-.45 1.28-.69.17-.1.33-.23.54-.27.11-.02.23-.01.34-.03.08-.01.13-.07.22-.07.02.12-.2.2-.17.32.01.04.05.06.11.06.16 0 .38-.13.44-.16.08-.04.38-.25.55-.25.05 0 .09.02.11.07.02.07-.14.13-.12.23.02.06.08.09.16.09.32 0 1.01-.35 1.1-.4.06-.04.56-.41.76-.41.04 0 .08.02.09.06 0 .02.01.03 0 .06-.02.18-.33.38-.44.53-.16.21-.24.45-.39.66-.35.48-.9.9-1.37 1.3-.46.39-.97.79-1.48 1.15-.46.32-1.1.54-1.67.74-.3.1-.61.19-.93.27-.23.05-.48.14-.74.14-.09 0-.17-.01-.26-.03-.29-.07-.58-.24-.86-.34-.36-.12-.73-.23-1.05-.42-.26-.16-.45-.35-.62-.55-.22-.25-.42-.52-.71-.73-.25-.19-.36-.21-.51-.47-.2-.36-.44-.71-.54-1.09a2.72 2.72 0 0 1 -.08-.63c0-.13.1-.45.06-.62-.02-.07-.06-.12-.15-.12-.1 0-.19.16-.24.22-.22.27-.45.54-.67.81-.16.19-.31.4-.47.6-.21.27-.43.54-.69.77-.17.15-.3.32-.44.49-.2.26-.39.51-.68.71-.24.16-.44.35-.64.54-.19.18-.39.36-.64.51-.43.24-.85.43-1.35.43zm-1.07-1.83c.23 0 .54-.16.63-.24.21-.18.3-.41.53-.58.24-.17.39-.3.61-.49.27-.23.43-.52.68-.76.18-.18.56-.21.67-.43.06-.12.03-.25.1-.37.09-.13.22-.25.32-.37a1 1 0 0 1 .27-.23c.04-.02.12-.05.16-.09.05-.05.02-.14.06-.18s.09-.06.13-.06c.12 0 .24.07.33.07.06 0 .1-.03.12-.13.05-.28.13-.56.26-.82.11-.22.31-.68.61-.68.04 0 .07.01.08.04.03.1-.24.35-.29.4-.04.04-.17.18-.16.23 0 .02.02.03.05.03.17 0 .34-.28.43-.38.11-.11.3-.22.26-.39-.02-.08-.1-.13-.12-.24-.02-.12.04-.22.13-.31.1-.1.22-.18.3-.26.26-.24.47-.51.68-.78.02-.03.22-.36.31-.36.02 0 .03.01.04.05s-.06.12-.08.14c-.09.14-.25.25-.32.4-.03.06-.04.11-.03.14s.03.05.07.05.09-.01.15-.05c.2-.11.33-.34.45-.51.06-.07.11-.14.09-.24-.02-.09-.15-.13-.18-.19-.02-.03-.01-.07.04-.15.03-.04.13-.11.23-.11.03 0 .05.01.05.04.01.07-.11.23-.01.23.11 0 .25-.13.29-.18.05-.05.16-.17.14-.25-.03-.12-.24-.07-.27-.17-.02-.08.28-.26.32-.31.12-.14.23-.29.33-.45.1-.15.09-.26.1-.44.01-.1.07-.16.11-.23.04-.06.07-.13.04-.23-.02-.06-.09-.09-.18-.09-.15-.01-.36.05-.4.05-.35.03-.64.14-.9.28-.31.18-.57.4-.82.58-.27.19-.56.38-.84.57-.38.26-.74.52-1.03.84-.22.24-.41.48-.6.73-.23.29-.46.57-.73.84-.25.25-.49.49-.72.74-.29.32-.56.65-.79 1.02-.21.32-.42.64-.64.95-.23.34-.45.67-.64 1.02-.29.53-.53 1.08-.63 1.69-.02.1-.1.3-.06.44.05.14.15.18.27.18zm7.11-5.52c.14-.16.35-.34.49-.51.11-.13.19-.26.16-.36-.01-.04-.03-.06-.06-.06-.15 0-.47.37-.5.41-.16.19-.29.39-.48.56-.1.09-.37.3-.33.47.01.06.08.1.14.1.23.01.52-.55.58-.61zm27.55 7.28c-.25-.04-.5-.04-.74-.04h-.14c-.15 0-.3 0-.45-.01-.39-.03-.78-.05-1.16-.11-.44-.07-.88-.18-1.31-.4-.3-.15-.58-.3-.85-.47-.36-.22-.7-.47-1.04-.75-.28-.23-.43-.57-.6-.85-.08-.13-.16-.31-.27-.49-.1-.17-.22-.33-.38-.42-.02-.01-.04-.02-.06-.02-.06 0-.09.03-.18.03-.07 0-.11-.06-.13-.15-.03-.11-.04-.25-.07-.35-.1-.37-.23-.73-.26-1.1-.05-.68.04-1.31.22-1.92.19-.65.48-1.27.78-1.88.34-.67.81-1.28 1.25-1.9.39-.55.77-1.12 1.22-1.63.26-.29.54-.55.83-.81s.6-.51.91-.76c.26-.21.53-.49.92-.55.14-.03.32-.03.52-.03h.44c.35 0 .57-.04 1.05-.04.42 0 .97.16 1.36.27.73.22 1.42.56 1.91 1.08.31.33.58.75.69 1.15.04.17.05.33.02.48-.12.59-.52 1.13-.82 1.65-.13.22-.3.38-.51.54-.24.19-.39.43-.61.64-.49.47-1.11.86-1.66 1.28-.54.41-1.08.81-1.68 1.15-.58.32-1.21.59-1.95.74-.14.03-.26.04-.38.04-.17 0-.34-.03-.57-.06-.16-.02-.49-.07-.75-.07-.13 0-.24.01-.3.05-.11.06-.17.2-.2.34-.03.13-.05.26-.08.35-.1.33-.19.66-.21 1.01-.01.13 0 .24.03.34.03.12.08.23.16.36s.11.09.15.28c.03.11-.01.23.02.35.11.42 1.08.52 1.73.52.77 0 1.82-.12 2.54-.23 1.07-.15 2.09-.41 3.07-.73 1.11-.37 2.17-.83 3.18-1.34.87-.44 1.74-.87 2.6-1.32.55-.29 1.09-.58 1.63-.89.26-.15.54-.31.62-.43.03-.05-.01-.13.01-.19.05-.15.5-.54.67-.54.11 0 .14.02.15.07s-.02.13 0 .22c.02.1.09.11.1.18.03.1-.47.26-.45.36.01.04.09.05.14.05.09 0 .19-.03.28-.03.07 0 .15.02.16.07.03.14-.54.38-.62.42-.33.17-.67.34-.97.55-.23.17-.33.32-.48.52-.07.1-.23.21-.41.3s-.37.18-.5.23c-.3.13-.52.25-.77.44-.08.06-.36.19-.33.29.02.06.1.08.18.08.13 0 .29-.08.42-.15s.26-.14.39-.14c.03 0 .06 0 .09.01-.05.14-.39.29-.56.37-.12.06-.43.19-.63.35-.15.13-.22.29-.21.37 0 .05.06.07.17.07.08 0 .37-.15.47-.18.17-.06.31-.15.46-.24.58-.35 1.21-.64 1.7-1.06.12-.1.55-.54.75-.54.04 0 .08.02.09.08.03.11-.15.32-.21.42-.35.6-.92.93-1.54 1.34-.29.19-.56.4-.86.59-.28.19-.62.31-.89.51-.53.39-1.12.75-1.75 1.07-.62.31-1.28.58-1.96.8-.44.14-.9.28-1.38.37-.4.08-.82.13-1.24.13-.31.02-.62-.04-.96-.09zm-6.91-4.17c.05 0 .08-.09.1-.28.02-.22.05-.43.09-.64l.12-.63a.78.78 0 0 0 -.01-.3c-.03-.1-.09-.19-.2-.19-.17 0-.2.28-.21.34-.04.15-.09.38-.12.61-.03.24-.03.5.03.73.04.22.14.36.2.36zm1.15-3.64c.16-.28.31-.62.48-.88.14-.23.3-.38.44-.61.08-.13.16-.25.24-.37.27-.38.58-.73.84-1.12.16-.24.4-.45.64-.65.13-.11.26-.31.39-.44.21-.21.4-.34.38-.43-.03-.11-.08-.12-.13-.12-.11-.01-.25.14-.32.18-.1.06-.22.05-.35.15-.12.09-.23.19-.35.29-.11.1-.2.22-.32.31-.13.11-.33.11-.46.2-.2.13-.1.29-.18.47-.06.13-.26.36-.39.44-.05.03-.22.06-.26.09-.1.09-.04.14-.07.26-.04.15-.13.21-.22.33-.16.21-.19.47-.35.68-.08.11-.2.2-.27.31-.08.14-.05.26-.08.41-.05.19-.35.42-.29.63.03.12.18.27.27.27.19.01.3-.29.36-.4zm2.6-.18c.33-.16.66-.33.96-.53.35-.23.67-.48 1.06-.68.14-.07.28-.13.4-.22.17-.13.16-.23.22-.38.1-.26.43-.41.67-.61.32-.26.59-.56.88-.85.23-.23.51-.53.74-.82.26-.34.44-.68.38-.92-.04-.15-.14-.2-.26-.2-.24 0-.57.21-.67.27l-1.02.63a17.257 17.257 0 0 0 -1.86 1.29c-.59.47-1.1.97-1.52 1.55-.19.27-.39.51-.56.79-.1.17-.3.55-.24.77.03.11.1.14.2.14.24.04.48-.16.62-.23z"/><path d="m472.63 386.86a.693.693 0 0 0 -.2-.03c-.24 0-.45.1-.66.1s-.41-.04-.62-.1c-.29-.08-.58-.09-.87-.14-.57-.1-1.14-.31-1.66-.56-.23-.11-.46-.23-.68-.37-.27-.17-.36-.39-.59-.58-.34-.29-.64-.85-.73-1.22-.05-.18-.03-.36-.01-.53.02-.18.01-.41.08-.57.06-.12.2-.19.27-.3.09-.13.14-.27.26-.38.13-.12.31-.21.49-.28.18-.08.37-.15.53-.25.1-.06.42-.44.63-.44.11 0 .21.06.23.11.05.19-.53.52-.6.65-.08.15-.1.25-.23.38-.12.11-.3.21-.26.38.02.07.15.17.17.24.02.1-.06.19-.04.27.04.14.12.16.35.23.44.12.85.3 1.3.38.53.1 1.09.19 1.61.19.31 0 .65-.02.94-.09.22-.05.29-.23.39-.23.21 0 .14.13.36.13.28 0 .59-.11.88-.15.2-.03.42-.02.6-.1.21-.08.27-.24.42-.37.26-.23.95-.27.83-.73-.1-.37-.92-.67-1.3-.82-.25-.1-.51-.19-.77-.29-.25-.09-.44-.23-.67-.35-.47-.24-.97-.19-1.33-.58-.35-.38-.89-.64-1.3-.98-.2-.17-.38-.35-.56-.53-.2-.2-.29-.42-.46-.63-.09-.1-.18-.21-.21-.31-.09-.36.3-.71.22-1.02-.03-.13-.15-.24-.19-.42-.05-.18.01-.34.11-.49.23-.37.47-.8.86-1.06.38-.26.81-.48 1.24-.69.94-.46 1.93-.87 2.96-1.21.51-.17 1.33-.44 1.81-.44.51 0 .78.14 1.29.24.28.06.56.12.84.2.26.07.57.23.83.25.1.01.19-.04.3 0 .1.04.2.2.27.27.18.21.38.41.55.62.04.06.07.12.09.18.08.3-.15.63-.51.63-.17 0-.31-.1-.55-.1-.07 0-.1.01-.19.05-.24.1-.48.19-.74.26-.53.16-1.06.32-1.6.45-.24.06-.5.08-.75.12-.29.05-.52.16-.77.27-.41.19-.87.33-1.32.47-.52.17-1.02.34-1.45.61-.19.12-.38.23-.55.36-.18.15-.31.29-.55.38-.12.05-.2.1-.18.17.01.05.06.1.16.17.22.15.44.22.71.28.24.06.49.15.74.26.33.15.66.32.96.47.54.27 1.04.57 1.54.88.2.13.43.23.62.36.23.16.41.37.61.55.4.36.79.66 1.04 1.1.26.45.42.92.62 1.38.07.16.14.31.19.49.01.05.01.07.02.13.01.19.09.38 0 .58-.17.34-.47.72-.86.91-.41.2-.78.46-1.24.61-.23.08-.47.18-.72.26-.24.08-.5.15-.76.17-.25.01-.49.06-.72.12-.26.06-.53.08-.81.09-.1.01-.21.02-.31.02-.19.03-.28-.05-.4-.08zm20.66.39c-.1 0-.2-.09-.25-.1-.13-.03-.25 0-.37-.03-.15-.03-.18-.09-.24-.17a.673.673 0 0 0 -.21-.2c-.17-.11-.29-.06-.47-.22-.07-.06-.12-.17-.2-.24s-.18-.09-.27-.18c-.11-.12-.38-.57-.47-.91-.05-.18-.05-.38.07-.38.04 0 .1.07.14.07.09 0 .21-.13.29-.23.17-.22.3-.47.42-.72.3-.59.6-1.17.89-1.76.14-.28.27-.57.42-.85.1-.19.38-.57.34-.75-.02-.09-.18-.13-.19-.2-.03-.12.04-.23.05-.25.11-.16.54-.08.48-.32-.02-.1-.16-.18-.19-.31-.07-.25.25-.44.49-.9.38-.75.75-1.51 1.11-2.27.28-.58.55-1.16.83-1.74.26-.56.62-1.08.78-1.67.11-.41.48-.76 1.01-.78.1 0 .21.01.33.03.28.06.6.01.87.12.27.12.57.35.8.52.27.19.41.41.47.64.08.3.02.61-.06.89-.15.59-.54 1.03-.85 1.55-.36.59-.6 1.25-.91 1.86-.15.29-.3.57-.47.85-.12.2-.44.46-.39.63.02.06.05.09.1.09s.13-.03.2-.09c.25-.18.39-.47.62-.68 1.09-.99 2.3-1.94 3.54-2.82.6-.43 1.23-.82 1.94-1.15.55-.25 1.1-.53 1.8-.53.44 0 .65.1 1.02.23.41.15.66.11.97.43.46.47.86 1.05 1 1.6.17.66-.06 1.14-.35 1.64-.04.06-.13.22-.1.33.01.05.06.09.16.1.18.02.46-.38.55-.46 1.14-.93 2.33-1.85 3.63-2.65.57-.35 1.24-.75 1.98-.9.08-.02.16-.03.25-.03.05 0 .11.01.17.03.14.05.17.16.3.21s.25 0 .38.06c.05.02.08.12.11.13.06.03.09.03.21.06.64.16.95.53 1.06.98.19.75-.18 1.69-.49 2.13-.38.54-.79 1.05-1.08 1.64s-.52 1.2-.9 1.74c-.37.53-.63 1.16-.84 1.77-.09.24-.39.71-.32.99.04.14.29.3.63.3.58 0 1.34-.22 1.6-.27.83-.18 1.63-.4 2.36-.72 1.51-.66 3.13-1.35 4.45-2.22.41-.27.84-.54 1.26-.8.27-.17.69-.59 1.05-.59.05 0 .08.01.08.04.01.06-.14.2-.21.27-.29.28-.63.52-.95.77-.19.15-.58.35-.64.58.12.02.37-.16.47-.16.02 0 .04.04.05.05 0 .02 0 .04-.02.08-.09.19-.58.36-.79.47-.27.14-.56.27-.85.39-.33.14-.65.29-.95.45-.16.09-.32.27-.29.38.02.06.09.11.25.11.05 0 .18-.03.28-.03.06 0 .1.01.11.05.01.05-.15.13-.3.22-.18.1-.28.27-.4.42-.12.16-.14.42-.31.54-.05.04-.34.1-.31.19.01.02.06.09.18.09s.25-.07.37-.07c.02 0 .05 0 .07.01-.03.15-.27.2-.38.3-.16.13-.24.3-.41.41-.34.24-.85.33-1.28.45-.57.16-1.13.33-1.73.44-.8.15-1.2.15-1.59.15-.66 0-1.36-.17-1.96-.44-.54-.24-1.02-.59-1.35-1.08-.45-.66-.84-1.3-1.01-1.95-.12-.45-.12-.9.03-1.36.18-.54.44-1.05.64-1.59.09-.24.24-.43.35-.66.13-.24.16-.51.34-.74.06-.08.43-.4.4-.53 0-.02-.02-.03-.04-.04-.14-.05-.55.32-.64.38-1.1.79-2.11 1.66-3.08 2.56-.58.53-1.14 1.07-1.69 1.62-.38.37-.81.73-1.22 1.09-.44.38-.86.78-1.18 1.21-.23.31-.28.66-.44.99-.05.1-.1.16-.17.16-.25 0-.35-.36-.63-.36-.16 0-.21-.09-.33-.16-.16-.1-.35-.17-.5-.27-.34-.26-.61-.75-.71-1.11-.13-.52.1-.95.32-1.37.13-.26.26-.52.37-.78.11-.24.31-.43.42-.66s-.01-.45-.01-.7c0-.24.12-.46.23-.66.27-.46.55-.91.8-1.37.24-.44.61-.8.85-1.24.09-.17.53-.84.45-1.14-.03-.12-.09-.16-.17-.16-.19 0-.46.25-.58.32-.47.32-1 .58-1.48.89a17.12 17.12 0 0 0 -2.9 2.25c-.44.43-.89.85-1.33 1.27s-.88.84-1.3 1.27c-.24.25-.48.5-.71.75-.36.39-.71.79-1.07 1.18-.23.25-.46.5-.7.75-.2.21-.46.38-.71.55-.21.15-.41.32-.54.53-.1.16-.17.33-.23.5-.06.15-.11.31-.16.46-.02.07-.04.18-.07.28-.09.13-.14.23-.25.23zm-.7-2.72c.26-.56.65-1.05.92-1.6.36-.75.75-1.5 1.11-2.25.14-.28.2-.6.36-.88.02-.03.34-.51.3-.66-.01-.03-.02-.04-.05-.04-.29-.01-.63 1.03-.71 1.18-.33.61-.62 1.25-.96 1.86-.33.59-.63 1.19-.97 1.78-.41.7-.76 1.12-.74 1.28 0 .05.04.07.11.07.3-.01.58-.64.63-.74zm5.75-4.91c.16-.21.36-.39.57-.57.45-.37.81-.76 1.33-1.09 1.05-.68 1.9-1.55 2.94-2.24.11-.07.98-.44.94-.62-.01-.06-.06-.08-.13-.08-.35 0-1.29.65-1.42.73-1.22.77-2.28 1.6-3.28 2.55-.23.22-.5.42-.74.64-.17.16-.25.37-.42.53-.05.05-.46.3-.43.42.01.04.02.12.12.12.2.01.39-.22.52-.39zm4.92 4.1c.45-.01.68-.9.86-1.31.24-.56.55-1.11.72-1.69.07-.23.14-.37.28-.57.03-.05.15-.22.13-.31-.01-.03-.03-.05-.08-.05-.19 0-.48.56-.54.66-.38.56-.68 1.16-1.03 1.74-.18.3-.36.62-.48.94-.04.1-.08.26-.05.37.02.09.09.23.19.22zm5.1-4.27c.56-.55 1.17-1.07 1.75-1.61.61-.57 1.3-1.04 2.01-1.53.3-.21.61-.41.91-.61.16-.11.49-.29.45-.44-.01-.05-.05-.07-.11-.07-.05 0-.1.01-.17.04-.22.1-.49.33-.67.46-.31.23-.56.5-.9.71-.34.22-.71.4-1.02.64-.62.48-1.22 1-1.79 1.52-.38.35-1.2 1.15-1.16 1.31.02.06.05.07.1.07.2.01.55-.44.6-.49zm1.56-.68c.2 0 .87-.71 1.2-.99.41-.34.85-.66 1.3-.96.28-.19.71-.49.95-.72.06-.06.12-.1.1-.13 0-.01-.02-.04-.05-.04s-.08.01-.16.05c-.43.18-.81.55-1.18.8-.48.33-.92.68-1.35 1.05-.23.2-.47.4-.68.62-.05.05-.21.23-.19.28.01.03.03.04.06.04zm2.11 4.61c.09-.3.26-.58.25-.91-.05-.86.46-1.57.87-2.27.07-.12.1-.24.08-.31-.01-.04-.03-.06-.07-.06-.05 0-.12.04-.22.13-.32.29-.5.71-.73 1.06-.23.36-.43.74-.56 1.14s-.08 1.13-.06 1.21c.02.09.13.26.24.26.16 0 .17-.15.2-.25z"/><path d="m527.99 387.15c-.88 0-1.56-.15-2.39-.27-.6-.09-1.36-.26-1.91-.54-.56-.28-1.15-.72-1.57-1.13-.21-.21-.35-.44-.56-.65-.24-.24-.43-.43-.59-.71-.27-.5-.45-1.07-.8-1.55-.09-.13-.26-.18-.34-.3-.16-.23-.16-.61-.2-.84-.17-1.1.25-2.13.81-3.01.22-.36.33-.7.57-1.04.25-.36.63-.71.87-1.05.28-.39.49-.78.82-1.15.4-.45.95-.89 1.4-1.33.18-.17.49-.34.68-.51.42-.38.85-.76 1.35-1.08.26-.17.52-.18.88-.18s.7-.05 1.06-.05c.58 0 1.32.14 1.87.38.61.26 1.03.51 1.37 1 .24.35.49.71.59 1.07.04.15.05.31.02.47-.1.49-.34.99-.6 1.42-.12.2-.27.37-.39.57-.13.21-.18.45-.33.66-.32.43-.68.84-1.04 1.24-.41.46-.78 1.01-1.23 1.47-.38.38-.84.67-1.28.99-.69.5-1.59.83-2.61.83-.3 0-.6-.03-.92-.09-.3-.06-.58-.15-.82-.33-.11-.09-.21-.18-.28-.28-.05-.08-.11-.28-.23-.28-.3 0-.36.52-.39.66-.09.41-.14.9-.02 1.36s.41.9 1.01 1.2c.55.28 1.17.34 1.75.35.71.01 1.48.03 2.14-.09.69-.12 1.38-.24 2.02-.44s1.25-.44 1.85-.7c1.18-.49 2.35-1 3.47-1.56.57-.28 1.13-.57 1.7-.85.54-.27 1.05-.59 1.61-.83.27-.12.47-.22.68-.38.14-.11.32-.08.37-.25.06-.19.12-.25.3-.39.1-.07.18-.22.32-.22.05 0 .07.01.07.04.01.03-.02.08-.03.13-.06.2-.03.34-.2.5-.13.12-.31.19-.47.28-.04.03-.09.05-.13.08-.05.04-.07.07-.06.09.01.03.06.04.11.04.14 0 .21-.06.33-.06.09 0 .18.04.25.04.06 0 .18-.09.24-.09.02 0 .04.01.05.03.02.06-.15.15-.22.19-.16.08-.31.17-.47.25-.35.19-.73.36-1.04.59-.29.21-.5.45-.87.59-.38.15-.7.33-1.04.52-.14.08-.3.1-.44.17-.14.06-.19.19-.33.25-.17.07-.36.05-.52.16-.13.09-.25.2-.39.29-.08.05-.58.23-.55.35.01.04.09.08.16.08.11 0 .25-.06.35-.06a.2.2 0 0 1 .09.02c-.08.2-.54.27-.73.4-.17.11-.45.29-.4.46.02.1.16.13.29.12.07 0 .13-.01.18-.02.37-.09.69-.31 1.03-.44.36-.14.67-.34 1-.51.17-.09.34-.17.49-.26.14-.08.38-.18.45-.31.06-.1-.04-.17.11-.23.12-.05.28-.02.4-.09.31-.17.61-.39.9-.58.05-.03.34-.28.5-.28.05 0 .09.02.1.09.02.09-.2.23-.25.27-.14.14-.29.28-.44.41-.49.45-1.05.85-1.63 1.22-.65.42-1.32.81-2 1.2-.33.19-.64.43-1.04.55-.17.05-.32.06-.46.16-.16.11-.3.23-.47.34-.74.44-1.61.78-2.46 1.1-.4.14-1 .33-1.47.33zm-7.61-5.62c.06-.33.1-.66.2-.98.11-.37.27-.73.41-1.09.13-.33.35-.59.55-.88.19-.27.28-.56.49-.82.22-.27.44-.54.62-.84.34-.56.94-.96 1.42-1.43.27-.27.54-.54.8-.81.07-.07.34-.28.3-.42a.133.133 0 0 0 -.13-.1c-.22 0-.66.38-.79.51-.11.11-.22.23-.35.33-.14.12-.33.14-.48.23-.17.1-.17.29-.23.44-.05.11-.24.16-.37.19-.15.04-.19.02-.21.19-.01.11-.04.14-.1.18-.13.1-.24.12-.28.28-.04.15-.03.27-.11.4-.09.16-.23.29-.35.43-.28.32-.53.68-.71 1.05-.17.35-.39.67-.57 1.02-.17.34-.32.7-.39 1.07-.07.33-.04.94-.01 1.07.04.16.09.23.14.23.11-.01.14-.19.15-.25zm3.55-1.67c.37-.16.69-.39.99-.61.64-.46 1.13-1.02 1.63-1.58.43-.48.87-.96 1.28-1.46.42-.5.83-1.02 1.19-1.56.21-.31.62-.85.57-1.09-.03-.12-.13-.17-.25-.17-.24.01-.58.18-.71.25-.55.28-1.07.6-1.56.94-.42.29-.8.67-1.19.99-.42.35-.84.64-1.22 1-.29.28-.57.57-.82.88-.3.36-.58.73-.83 1.12-.21.33-.37.69-.61 1.02-.06.08-.17.21-.14.32.04.14.21.2.43.2.46.01 1.12-.2 1.24-.25z"/><path d="m525.85 401.51c-.54 0-1.11-.16-1.71-.39-.9-.35-1.43-.85-1.85-1.54-.19-.31-.25-.64-.44-.94-.08-.13-.3-.29-.34-.43-.03-.08.03-.11.14-.21.22-.19.19-.44.27-.7.09-.3.24-.77.51-.98.09-.07.23-.05.29-.09.14-.08.03-.13.06-.26.05-.23.38-.43.52-.65.41-.62.72-1.25 1.24-1.82.5-.54.82-1.16 1.35-1.68.55-.55.96-1.16 1.58-1.67.64-.53 1.28-1.07 1.94-1.59.65-.51 1.32-1.01 2.03-1.47.37-.24.74-.49 1.13-.72.33-.2.67-.4 1.02-.58.31-.16.67-.25.69-.59 0-.07-.03-.15-.02-.21.01-.04.11-.05.09-.11s-.09-.12-.11-.18c-.03-.09.08-.17.17-.21.08-.04.16-.06.15-.1s-.11-.02-.12-.06c-.02-.05.03-.1.03-.15.02-.15.17-.31.22-.47.18-.65.44-1.29.58-1.95.05-.25-.07-.45.07-.69.18-.3.36-.61.49-.94.28-.66.42-1.34.64-2.02.22-.7.47-1.39.69-2.1.24-.76.45-1.53.56-2.33.05-.33 0-.55.34-.75.29-.17.56-.18.94-.18.4 0 .82.13 1.24.38.27.16.57.37.79.62.18.21.32.36.37.53.03.1.04.21 0 .34-.1.39-.24.77-.36 1.15-.11.34-.23.68-.36 1.01-.17.43-.34.86-.53 1.28-.31.71-.63 1.41-.92 2.12-.29.69-.45 1.42-.61 2.15-.16.68-.31 1.36-.58 2-.05.11-.21.36-.16.52.07.22.66.27.92.38.32.14 1.02.54 1.11.83.06.19-.13.34-.82.34-.28 0-.57-.03-.86-.03-.25 0-.5.02-.73.11-.32.12-.67.25-.91.44-.15.12-.16.23-.26.37-.08.11-.3.17-.25.32.02.07.07.14.06.21-.02.1-.18.15-.21.25-.04.12.02.2-.05.31-.03.05-.19.01-.15.13.02.05.07.1.06.14-.05.3-.37.35-.57.59-.09.11-.14.24-.22.36-.05.07-.09.14-.17.19-.09.05-.33.06-.3.17.02.06.11.1.14.19.03.08-.16.11-.34.15-.17.04-.33.1-.29.23.03.11.14.14.24.18.09.04.18.08.21.17.02.08.01.15-.02.23-.1.29-.45.34-.62.57-.08.11-.06.21-.04.32.01.11.02.21-.08.32-.2.2-.53.18-.75.33-.1.07-.11.15-.11.23 0 .09 0 .18-.09.25-.15.13-.31.2-.28.29.02.08.16.18.34.18.05 0 .11.01.13.06.04.08-.07.09-.18.09h-.13c-.21 0-.24.11-.22.18.01.03.03.06.04.1.01.05.02.1.01.16-.04.15-.19.15-.32.18-.13.02-.24.06-.22.26.02.21.08.21-.1.32-.13.08-.2.07-.27.2-.15.28-.12.61-.33.87-.08.11-.28.18-.34.28-.04.07.02.14.02.24-.01.26-.28.5-.42.71-.23.33-.41.69-.64 1.03-.41.62-.91 1.2-1.42 1.76-.48.53-.99 1.07-1.77 1.35-.28.08-.55.12-.83.12zm-1.61-5.76c-.02-.05-.06-.09-.14-.09-.07 0-.15.15-.12.24.01.04.04.07.1.07.13-.01.18-.16.16-.22zm.19-.34c.07 0 .12-.03.1-.1s-.1-.11-.17-.11c-.08 0-.15.04-.13.1.02.07.12.11.2.11zm.21-.35c.17 0 .33-.12.46-.28.17-.2.3-.45.4-.62.23-.38.57-.71.9-1.03.38-.38.73-.78 1.09-1.17.32-.35.65-.69 1.02-1.02.4-.36.79-.73 1.19-1.1.47-.43.97-.85 1.52-1.2.38-.24.78-.46 1.09-.75.04-.04.35-.3.31-.41-.01-.03-.04-.04-.08-.04-.18 0-.58.32-.73.42-.17.11-.29.21-.51.28-.24.08-.49.09-.57.3-.06.17.04.26-.16.4-.13.09-.29.17-.43.24-.19.09-.39.17-.58.27-.07.03-.17.04-.23.09-.09.07-.07.21-.15.27-.04.03-.1.04-.15.06-.06.02-.12.03-.11.06s.08.02.1.06c.01.02-.06.13-.11.18-.13.14-.35.19-.49.32s-.2.29-.38.39c-.2.12-.4.13-.5.33-.07.15-.03.34-.17.47-.13.12-.23.07-.41.11-.15.03-.19.11-.21.2-.02.08-.01.18-.05.27-.07.18-.23.36-.41.53-.13.13-.26.24-.37.35s-.34.17-.4.31c-.05.11.02.28-.04.4-.14.3-.43.57-.72.78-.11.08-.4.2-.34.37.03.09.13.16.22.16zm.3 5.08c.2 0 .54-.37.6-.42.58-.55 1.03-1.17 1.49-1.79.18-.24.37-.47.58-.7.21-.24.28-.52.45-.77.35-.53.72-1.04 1.02-1.59.33-.6.73-1.16 1.05-1.76.05-.1.09-.21.18-.3.08-.07.23-.11.29-.19.1-.14-.02-.2.03-.4.06-.26.26-.51.39-.74.17-.32.34-.65.53-.96.04-.07.36-.45.32-.6-.01-.04-.04-.06-.11-.06-.17 0-.33.37-.37.41-.14.19-.37.31-.48.52-.08.16-.11.19-.19.19-.05 0-.14-.01-.27-.01-.64 0-1.02.63-1.35.95-.59.56-1.13 1.17-1.64 1.8-.43.54-.84 1.09-1.23 1.64-.45.63-.86 1.27-1.14 1.98-.03.07-.25.48-.43.93-.14.37-.25.76-.17.99.02.06.06.09.13.09.18 0 .49-.36.54-.4.12-.11.26-.19.39-.29.05-.04.28-.4.38-.4.09-.01.14.02.15.07.05.14-.16.44-.2.49-.21.29-.46.55-.7.82-.04.05-.35.36-.31.48-.01.01.02.02.07.02zm2.47-1.08c.11 0 .43-.45.48-.52 1.1-1.51 2.18-2.97 2.98-4.63.51-1.06 1.25-2.04 1.84-3.07.31-.55.63-1.09.91-1.65.04-.08.3-.51.26-.66-.02-.08-.07-.11-.12-.11-.14 0-.36.24-.47.42-.25.42-.72 1.18-.93 1.61-.5 1-1.02 2.01-1.63 2.96-.86 1.35-1.59 2.76-2.49 4.09-.31.45-.65.9-.88 1.39-.01.03-.04.09-.02.13.01.03.03.04.07.04zm1.01-7.28c-.01-.02-.03-.04-.05-.03-.1.01-.27.18-.25.23.01.02.03.03.07.03.12 0 .25-.14.23-.23zm.62-.34c.14-.02.22-.11.29-.23s.13-.25.21-.33c.04-.04.38-.26.35-.36-.01-.04-.07-.06-.14-.06-.18 0-.48.1-.55.22-.08.12-.04.25-.15.36-.05.05-.29.25-.26.35.01.03.05.05.14.05.03.01.07 0 .11 0zm7.74-6.84c.07-.18.23-.31.33-.47.12-.19.21-.4.28-.62.11-.33.2-.67.31-.99.08-.23.17-.47.26-.7.12-.32.22-.64.26-.97.03-.22-.05-.5.05-.69.06-.12.21-.22.19-.31-.01-.02-.03-.04-.07-.04-.17-.02-.3.21-.4.47-.11.27-.18.58-.21.67-.1.29-.21.57-.31.86-.1.28-.21.57-.32.85-.21.55-.4 1.09-.62 1.63-.03.08-.22.4-.17.56.02.06.07.1.17.1.14 0 .16-.12.25-.35zm3.05-15.73c-.63-.4-.96-.92-1.15-1.5-.17-.52.09-1.33.12-1.99.02-.43.27-.51.6-.54.23-.02.5-.02.76-.09.14-.04.31-.05.5-.05.48 0 1.06.12 1.46.34.25.14.43.33.59.53.08.11.33.44.39.62.18.57-.24 1.14-.51 1.61-.15.26-.26.55-.48.77-.18.19-.36.47-.58.62-.08.06-.2.08-.34.08-.43.01-1.06-.21-1.36-.4zm5.73 17.69c-.39-.15-.8-.38-1.19-.64-.44-.29-.84-.62-1.14-.92-.59-.61-.79-1.24-1.06-1.92-.16-.39-.18-.64-.18-1.01 0-.17-.1-.33-.12-.51-.02-.2.05-.41.1-.59.08-.34.21-.65.36-.97.06-.12.13-.24.1-.35-.01-.02-.07-.07-.08-.09-.02-.09.15-.14.22-.21.25-.24.45-.54.61-.82.08-.14.02-.24.06-.35.04-.13.07-.11.23-.22.26-.17.33-.47.47-.7.15-.25.42-.35.59-.55.07-.09.08-.15.16-.23s.16-.12.24-.21c.23-.29.52-.52.8-.78.3-.28.53-.6.85-.87.34-.29.69-.58 1.04-.86.16-.12.31-.29.53-.36.15-.05.3-.03.46-.03.06 0 .12 0 .18-.01.22-.04.32-.15.5-.23s.35-.06.55-.09c.58-.07 1.09-.22 1.64-.22.35 0 .72.06 1.12.23 1.03.44 1.92 1.48 2.05 1.98.21.8.01 1.51-.18 2.23-.11.41-.23.8-.4 1.19-.05.12-.07.21-.05.27.02.08.1.11.22.11.09 0 .21-.02.35-.05.99-.21 2.07-.43 2.91-.84.18-.09.29-.14.51-.18.16-.03.5-.09.48-.14-.02-.06-.15-.03-.17-.11s.19-.13.27-.13c.15 0 .15.14.25.14.06 0 .12-.04.2-.04.03 0 .06.01.07.04.03.1-.29.2-.35.23-.41.18-.86.32-1.3.47-.12.04-.96.2-.93.33.02.08.1.11.21.11.24 0 .63-.14.79-.14.03 0 .06.01.07.02.03.1-.27.16-.32.23.06.04.13.06.19.06.22.01.45-.17.68-.17.07 0 .13-.01.16.08s-.29.21-.4.25c-.34.12-.36.33-.62.51-.26.17-.74.31-.71.45.02.08.1.08.12.16.03.11-.25.16-.38.22-.37.17-.76.32-1.15.47-.37.15-.71.33-1.11.43-.42.1-.83.15-1.26.19-.38.03-.66.22-.88.46-.24.27-.41.6-.56.87-.19.33-.44.61-.67.91-.2.25-.39.49-.53.77-.06.11-.18.22-.15.35.02.06.05.06.07.15.02.08-.26.3-.34.33-.09.04-.23 0-.29.06s-.03.21-.1.29c-.08.1-.24.19-.36.27a6.7 6.7 0 0 1 -1.02.57c-.34.15-.97.27-1.57.27-.29-.03-.61-.07-.84-.16zm-2.25-3c.09-.46 0-.98.08-1.45.06-.38.19-.74.35-1.09.21-.46.47-.91.69-1.35.06-.13.26-.53.23-.66-.01-.02-.02-.04-.04-.04-.04 0-.12.04-.25.15-.38.33-.56.84-.79 1.25-.25.46-.55.98-.73 1.49-.15.42-.23.84-.13 1.22.07.27.33.68.45.68.06.01.11-.05.14-.2zm2.35.91c.67-.27 1.22-.86 1.71-1.3.29-.26.56-.54.82-.82.27-.29.52-.59.78-.89.13-.15.3-.27.27-.41-.02-.06-.08-.13-.22-.21-.37-.21-.84-.25-1.15-.53-.09-.09-.11-.2-.21-.28-.08-.07-.22-.08-.31-.13-.29-.16-.62-.71-.83-.71s-.25.25-.4.48c-.2.31-.4.62-.61.93-.17.27-.27.54-.39.83-.09.21-.27.42-.31.66-.03.18-.13.19-.1.32.02.08.08.15.1.24.07.27-.11.97-.13.98 0 .15-.05.45 0 .66.02.06.04.12.08.16.1.11.24.15.37.15.2 0 .4-.07.53-.13zm5.3-5.82c.3-.47.59-.95.83-1.46.22-.44.4-.91.47-1.4.01-.08.12-.37.08-.5-.02-.07-.06-.1-.12-.1-.2 0-.56.28-.65.35-.86.68-1.62 1.39-2.27 2.22-.11.15-.35.38-.52.63-.14.21-.24.43-.19.61.07.25 1.16.44 1.53.44.51 0 .66-.51.84-.79zm1.07.84c.2-.04.48-.38.43-.59-.02-.07-.05-.09-.1-.09-.13 0-.37.36-.33.68zm.98-1.78c-.01-.06-.04-.08-.08-.08-.08 0-.24.2-.25.23-.04.06-.2.33-.17.45.01.03.03.06.08.06.18 0 .46-.52.42-.66zm.62-2.36c-.01-.04-.03-.06-.04-.06-.1 0-.32.53-.28.74.01.05.03.08.07.08.15 0 .32-.52.25-.76zm6.07 10.99c-.05-.01-.1-.06-.18-.15-.07-.08-.11-.11-.15-.11-.06 0-.11.04-.23.04-.18 0-.27-.21-.38-.3-.15-.12-.32-.06-.44-.23-.05-.07-.05-.15-.13-.21-.09-.06-.13-.03-.22-.05-.24-.08-.31-.32-.4-.49a3.25 3.25 0 0 1 -.35-.8c-.04-.18-.07-.35-.06-.54.02-.41.16-.77.28-1.14.13-.37.21-.75.37-1.12.34-.8.64-1.63 1.05-2.4.2-.37.4-.75.62-1.12.2-.32.3-.66.48-.99.08-.14.1-.29.16-.44.08-.21.23-.39.34-.59.21-.38.4-.76.59-1.14.2-.39.4-.79.58-1.19.09-.19.17-.38.24-.57.07-.16.18-.34.19-.53s-.07-.37.01-.55c.07-.17.21-.31.31-.46.1-.14.18-.3.32-.41.16-.12.38-.18.58-.25.19-.07.36-.16.56-.21.23-.05.48-.01.73.04.51.11 1 .3 1.42.59.35.24.63.55.72.88.02.07.03.14.03.21-.01.39-.26.72-.39 1.07-.02.06-.05.17-.04.24.01.04.04.06.1.06.08 0 .2-.07.27-.09.13-.05.26-.09.39-.13.53-.17 1.11-.36 1.72-.36.35 0 .8.06.93.32.09.18.1.23.34.27s.55 0 .78.12c.22.11.24.31.33.47.1.2.24.27.44.41.07.05.11.09.12.11.02.06-.15.05-.23.13-.11.12-.06.39-.11.54-.12.34-.55.56-.88.75-.15.09-.34.23-.56.23s-.46-.12-.67-.18c-.23-.07-.52-.11-.59-.39-.01-.03 0-.15-.03-.25-.02-.09-.08-.17-.2-.17-.13 0-.55.22-.68.29-.38.2-.74.4-1.06.65-.72.55-1.59.95-2.28 1.53-.36.3-.77.59-1.09.93-.25.27-.37.64-.55.95-.45.78-.94 1.54-1.33 2.35-.19.39-.33.81-.5 1.21-.16.38-.36.75-.52 1.13a3.023 3.023 0 0 0 -.24 1.24c0 .14.08.47-.13.47-.05 0-.11-.01-.15 0-.11.05-.09.14-.14.23-.02.07-.05.1-.09.1zm-.88-3.31c.19-.33.36-.66.53-1 .35-.7.69-1.41 1.03-2.12.35-.71.7-1.43 1.05-2.14.19-.38.37-.73.52-1.02.19-.38.3-.66.28-.79-.01-.05-.04-.08-.1-.08-.11 0-.3.31-.47.6-.19.34-.4.67-.6 1.01-.39.66-.75 1.34-1.07 2.03-.33.71-.64 1.43-.93 2.15-.14.34-.27.68-.4 1.02-.07.18-.15.36-.21.54-.06.16-.16.33-.13.51.26-.11.38-.49.5-.71zm1.3.74c.16-.33.27-.68.42-1.02.31-.7.65-1.39.97-2.09.04-.08.35-.57.3-.76-.01-.04-.04-.07-.1-.07-.21 0-.39.57-.43.66-.04.1-.13.11-.21.18-.13.12-.16.33-.21.49-.12.31-.31.53-.52.79-.25.31-.36.67-.46 1.04-.03.11-.3.8-.23 1.08.03.11.05.15.14.15.15 0 .28-.35.33-.45zm-262.44-177.69h204.53v43.13h-204.53z"/></g><path d="m335.25 243.65h-32v-32h32zm4.17 0v-36.18h-40.35v40.35h201.75v-4.17z" fill="#bf0811"/><path d="m304.63 213.04h9.74v9.74h-9.74zm0 19.48h9.74v9.74h-9.74zm9.74-9.74h9.74v9.74h-9.74zm9.74-9.74h9.74v9.74h-9.74zm0 19.48h9.74v9.74h-9.74z" fill="#bf0811"/><path d="m339.39 207.47h161.43v36.18h-161.43z" fill="#222220"/><g fill="#fff"><path d="m442.19 215.58c0-.42.23-.65.65-.65h3.16c.32 0 .58.13.77.42l7.81 11.81c.74 1.13 1.55 2.32 2.39 3.71.13.23.35.2.35-.06-.03-1.32-.1-3.29-.1-4.61v-10.62c0-.42.23-.65.65-.65h2.58c.42 0 .65.23.65.65v21.29c0 .42-.23.65-.65.65h-3.06c-.32 0-.58-.13-.77-.42l-7.91-11.81c-.78-1.13-1.55-2.32-2.39-3.71-.13-.23-.35-.19-.35.07.03 1.32.1 3.29.1 4.61v10.62c0 .42-.23.65-.65.65h-2.58c-.42 0-.65-.23-.65-.65zm-13.97 0c0-.42.23-.65.64-.65h2.61c.42 0 .65.23.65.65v21.29c0 .42-.23.65-.65.65h-2.61c-.42 0-.64-.23-.64-.65zm-14.52 9.33c-.68.61-1.42.94-2.65.94h-5.03c-.19 0-.32-.13-.32-.32v-6.45c0-.19.13-.32.32-.32h5.03c1.23 0 1.97.32 2.61.93.68.61 1.03 1.61 1.03 2.65.01.95-.34 1.95-.99 2.57m6.23 9.35c-.81 0-1.52 0-1.94-.13-.45-.13-.71-.39-.97-.78l-2.61-3.87c-.13-.2-.07-.32.16-.42.78-.32 1.49-.81 2.07-1.39 1.32-1.32 2.13-3.29 2.13-5.36 0-2.1-.78-4.1-2.13-5.42-1.29-1.29-2.81-1.97-5.36-1.97h-8.87c-.42 0-.64.23-.64.65v21.29c0 .42.23.65.64.65h2.65c.42 0 .64-.23.64-.65v-6.9c0-.19.13-.32.32-.32h3.29c.42 0 .74.16.97.51l3.68 5.49c1.32 1.97 2.61 2.35 4.68 2.35.32 0 1.19 0 1.49-.1.32-.1.45-.32.45-.61v-2.39c-.01-.4-.23-.63-.65-.63m-43.62 1.07c-1.64-1.61-2.45-3.68-2.45-6.94v-12.81c0-.42.23-.65.64-.65l2.71.03c.42 0 .64.23.64.65v13.29c0 1.84.48 2.94 1.42 3.94.9 1 2.39 1.45 3.84 1.45 1.52 0 3.03-.45 3.97-1.45.9-1 1.36-2.1 1.36-3.94v-13.32c0-.42.23-.65.64-.65h2.71c.42 0 .64.23.64.65v12.97c0 3.23-.81 5.16-2.42 6.81-1.68 1.71-4.26 2.65-6.9 2.65-2.61-.01-5.16-1.01-6.8-2.68m-15.23-9.52c-.74.71-1.61 1.06-3.03 1.06h-5.52c-.19 0-.32-.13-.32-.32v-7.49c0-.19.13-.32.32-.32h5.52c1.42 0 2.29.39 3.03 1.06.78.71 1.16 1.87 1.16 3.03 0 1.14-.38 2.27-1.16 2.98m2.9-8.78c-1.42-1.39-3.03-2.1-5.77-2.1h-9.29c-.42 0-.64.23-.64.65v21.29c0 .42.22.65.64.65h2.65c.42 0 .64-.23.64-.65v-5.87c0-.19.13-.32.32-.32h5.55c2.78 0 4.49-.71 5.87-2.1 1.42-1.42 2.29-3.52 2.29-5.74s-.84-4.39-2.26-5.81m118.54 11.62h-6.48c-.29 0-.45-.16-.32-.45l1.45-3.77c.65-1.64 1.23-3.16 1.87-4.87.13-.35.32-.35.45 0 .65 1.71 1.23 3.23 1.87 4.87l1.45 3.77c.13.29 0 .45-.29.45m8.03 8.13-8.84-21.36c-.13-.35-.39-.48-.74-.48h-3.36c-.36 0-.61.19-.74.52l-8.74 21.32c-.19.45.03.74.52.74h2.84c.35 0 .61-.2.74-.52l1.71-4.23c.1-.26.26-.35.52-.35h9.68c.26 0 .42.1.52.35l1.74 4.23c.13.32.39.52.74.52h2.94c.47 0 .66-.29.47-.74m.42-16.76c-1.68 0-3.04-1.43-3.04-3.07 0-1.68 1.35-3.04 3.04-3.04s3.07 1.35 3.07 3.04c0 1.65-1.39 3.07-3.07 3.07m0-6.76c-2.05 0-3.69 1.65-3.69 3.69s1.65 3.69 3.69 3.69c2.05 0 3.69-1.65 3.69-3.69s-1.64-3.69-3.69-3.69"/><path d="m491.19 216.84h-.91v-1.24h.91c.29 0 .62.15.62.62 0 .44-.29.62-.62.62m.95 1.24-.44-.66c.55-.18.84-.69.84-1.21 0-.69-.48-1.28-1.32-1.28h-1.65v3.91h.69v-1.35h.66l.69 1.02c.29.44.51.44 1.06.4v-.62c-.27.01-.35.05-.53-.21"/></g></svg>